<?xml version="1.0" encoding="UTF-8"?><svg id="Layer_1" xmlns="http://www.w3.org/2000/svg" xmlns:xlink="http://www.w3.org/1999/xlink" viewBox="0 0 1920 962"><defs><style>.cls-1{fill:url(#linear-gradient);}.cls-2{fill:#fab239;}.cls-3{fill:#f7c245;}.cls-4{fill:#f8901d;}.cls-5{fill:#fdda45;}.cls-6{opacity:.6;}.cls-6,.cls-7{fill:#fff;}.cls-7{opacity:.3;}</style><linearGradient id="linear-gradient" x1="1289.01" y1="102.32" x2="502.1" y2="889.23" gradientTransform="matrix(1, 0, 0, 1, 0, 0)" gradientUnits="userSpaceOnUse"><stop offset="0" stop-color="#1b00ff"/><stop offset=".5" stop-color="#ff2000"/><stop offset="1" stop-color="aqua"/></linearGradient></defs><g><circle class="cls-5" cx="572.27" cy="696.84" r="83.32"/><path class="cls-7" d="M537.2,772.44c3.56,1.65,7.25,3.06,11.06,4.21l103.82-103.82c-1.14-3.81-2.55-7.5-4.21-11.06l-110.66,110.66Z"/><path class="cls-6" d="M520.6,762.2l117.03-117.03c-7.88-9.96-17.99-18.07-29.57-23.59l-111.05,111.05c5.52,11.58,13.63,21.69,23.59,29.57Z"/><circle class="cls-2" cx="572.27" cy="696.84" r="69.99"/><circle class="cls-5" cx="572.27" cy="696.84" r="65.78"/><path class="cls-7" d="M540.47,754.43l89.39-89.39c-5.5-9.93-13.49-18.29-23.13-24.24l-90.49,90.49c5.94,9.64,14.3,17.63,24.24,23.13Z"/><path class="cls-7" d="M555.92,760.57c4.43,1.13,9.05,1.82,13.79,2l68.29-68.29c-.18-4.74-.87-9.35-2-13.79l-80.08,80.08Z"/></g><g><circle class="cls-5" cx="1041.02" cy="202.51" r="68.38" transform="translate(161.71 795.43) rotate(-45)"/><path class="cls-7" d="M1012.24,264.55c2.92,1.36,5.95,2.51,9.07,3.45l85.21-85.21c-.94-3.12-2.1-6.15-3.45-9.07l-90.83,90.83Z"/><path class="cls-6" d="M998.61,256.15l96.05-96.05c-6.47-8.17-14.76-14.83-24.27-19.36l-91.14,91.14c4.53,9.5,11.19,17.8,19.36,24.27Z"/><circle class="cls-2" cx="1041.02" cy="202.51" r="57.44" transform="translate(161.71 795.43) rotate(-45)"/><circle class="cls-5" cx="1041.02" cy="202.51" r="53.99" transform="translate(604.75 1169.15) rotate(-76.72)"/><path class="cls-7" d="M1014.92,249.77l73.36-73.36c-4.51-8.15-11.07-15.01-18.98-19.89l-74.27,74.27c4.88,7.91,11.74,14.47,19.89,18.98Z"/><path class="cls-7" d="M1027.6,254.81c3.64,.93,7.42,1.49,11.32,1.64l56.05-56.05c-.15-3.89-.71-7.68-1.64-11.32l-65.73,65.73Z"/></g><g><circle class="cls-5" cx="454.98" cy="881.44" r="45.53"/><path class="cls-7" d="M435.82,922.75c1.94,.9,3.96,1.67,6.04,2.3l56.73-56.73c-.63-2.08-1.4-4.1-2.3-6.04l-60.48,60.48Z"/><path class="cls-6" d="M426.74,917.15l63.95-63.95c-4.31-5.44-9.83-9.87-16.16-12.89l-60.69,60.69c3.02,6.33,7.45,11.85,12.89,16.16Z"/><circle class="cls-2" cx="454.98" cy="881.44" r="38.25"/><circle class="cls-5" cx="454.98" cy="881.44" r="35.95"/><path class="cls-7" d="M437.6,912.91l48.85-48.85c-3-5.43-7.37-10-12.64-13.24l-49.45,49.45c3.25,5.27,7.82,9.64,13.24,12.64Z"/><path class="cls-7" d="M446.04,916.26c2.42,.62,4.94,.99,7.53,1.09l37.32-37.32c-.1-2.59-.47-5.11-1.09-7.53l-43.76,43.76Z"/></g><g><circle class="cls-5" cx="1420.86" cy="148.56" r="45.53"/><path class="cls-7" d="M1401.7,189.87c1.94,.9,3.96,1.67,6.04,2.3l56.73-56.73c-.63-2.08-1.4-4.1-2.3-6.04l-60.48,60.48Z"/><path class="cls-6" d="M1392.63,184.28l63.95-63.95c-4.31-5.44-9.83-9.87-16.16-12.89l-60.69,60.69c3.02,6.33,7.45,11.85,12.89,16.16Z"/><circle class="cls-2" cx="1420.86" cy="148.56" r="38.25"/><circle class="cls-5" cx="1420.86" cy="148.56" r="35.95"/><path class="cls-7" d="M1403.49,180.03l48.85-48.85c-3-5.43-7.37-10-12.64-13.24l-49.45,49.45c3.25,5.27,7.82,9.64,13.24,12.64Z"/><path class="cls-7" d="M1411.92,183.39c2.42,.62,4.94,.99,7.53,1.09l37.32-37.32c-.1-2.59-.47-5.11-1.09-7.53l-43.76,43.76Z"/></g><g><circle class="cls-5" cx="1807.77" cy="322.14" r="45.53"/><path class="cls-7" d="M1788.6,363.45c1.94,.9,3.96,1.67,6.04,2.3l56.73-56.73c-.63-2.08-1.4-4.1-2.3-6.04l-60.48,60.48Z"/><path class="cls-6" d="M1779.53,357.86l63.95-63.95c-4.31-5.44-9.83-9.87-16.16-12.89l-60.69,60.69c3.02,6.33,7.45,11.85,12.89,16.16Z"/><circle class="cls-2" cx="1807.77" cy="322.14" r="38.25"/><circle class="cls-5" cx="1807.77" cy="322.14" r="35.95"/><path class="cls-7" d="M1790.39,353.61l48.85-48.85c-3-5.43-7.37-10-12.64-13.24l-49.45,49.45c3.25,5.27,7.82,9.64,13.24,12.64Z"/><path class="cls-7" d="M1798.83,356.96c2.42,.62,4.94,.99,7.53,1.09l37.32-37.32c-.1-2.59-.47-5.11-1.09-7.53l-43.76,43.76Z"/></g><g><path class="cls-2" d="M513.56,517.29h23.4v-6.11l-1.45-1.19c22.76-15.77,38.91-55.33,38.91-101.65s-14.68-82.2-35.78-99.31l3.18-1.8s-1.38-2.75-1.38-3.1-3.48-4.75-3.48-4.75h-23.4c-33.61,0-60.86,48.78-60.86,108.96s27.25,108.96,60.86,108.96Z"/><path class="cls-4" d="M468.55,481.67h90.02c8.12-15.96,13.62-36.26,15.3-58.72h-120.62c1.68,22.46,7.18,42.76,15.3,58.72Z"/><path class="cls-3" d="M454.95,378.91h117.22c-2.66-17.04-7.58-32.39-14.14-44.96h-88.93c-6.56,12.57-11.48,27.92-14.15,44.96Z"/><ellipse class="cls-5" cx="536.5" cy="408.34" rx="60.86" ry="108.96"/><path class="cls-7" d="M496.81,490.94c4.11,6.34,8.71,11.72,13.67,15.93l86.51-86.51c.24-3.95,.37-7.96,.37-12.02,0-5.85-.26-11.59-.75-17.19l-99.79,99.79Z"/><path class="cls-6" d="M483.09,460.61l106.27-106.27c-4.95-15.5-11.96-28.61-20.37-38.13l-93.35,93.35c.11,18.49,2.8,35.87,7.45,51.05Z"/><ellipse class="cls-2" cx="536.95" cy="408.34" rx="51.12" ry="91.52"/><ellipse class="cls-5" cx="533.11" cy="408.34" rx="47.27" ry="86.02"/><path class="cls-7" d="M498.37,466.67l80.44-80.44c-2.82-19.35-9.25-36.02-17.9-47.48l-74.97,74.97c.69,20.38,5.28,38.85,12.44,52.94Z"/><path class="cls-7" d="M507,480.06c2.87,3.47,5.97,6.39,9.24,8.66l63.2-63.2c.62-5.55,.94-11.3,.94-17.18,0-.55,0-1.1,0-1.65l-73.37,73.37Z"/></g><g><path class="cls-2" d="M1208.58,572.54l-21.65-23.56-6.15,5.66,.14,2.56c-36.94-8.33-91.72,12.02-138.36,54.88-44.48,40.87-69.19,90.84-66.88,127.92l-4.76-1.54s-1.5,3.93-1.84,4.25c-.35,.32-1.56,7.9-1.56,7.9l21.65,23.56c31.1,33.84,105.43,16.14,166.02-39.54,60.59-55.68,84.5-128.25,53.4-162.09Z"/><path class="cls-4" d="M1214.36,650.82l-83.29-90.64c-23.58,6.59-49.11,19.84-73.29,38.93l111.61,121.45c21.06-22.48,36.41-46.8,44.97-69.74Z"/><path class="cls-3" d="M1123.47,759.61l-108.46-118.03c-14.69,18.45-25.6,37.61-32.18,55.84l82.29,89.54c18.73-5.02,38.74-14.27,58.36-27.36Z"/><ellipse class="cls-5" cx="1077.65" cy="650.26" rx="149" ry="83.22" transform="translate(-155.84 900.63) rotate(-42.58)"/><path class="cls-7" d="M1197.54,613.79c2.58-10.01,3.74-19.61,3.39-28.5l-167.15-7.06c-4.2,3.41-8.35,6.99-12.44,10.75-5.89,5.41-11.43,10.98-16.61,16.66l192.81,8.14Z"/><path class="cls-6" d="M1179.7,655.67l-205.34-8.67c-11.02,19.32-17.74,38.51-19.55,55.79l180.38,7.62c18.51-17.22,33.53-36.01,44.51-54.74Z"/><ellipse class="cls-2" cx="1077.23" cy="649.8" rx="125.16" ry="69.91" transform="translate(-155.63 900.23) rotate(-42.58)"/><ellipse class="cls-5" cx="1080.79" cy="653.68" rx="117.63" ry="64.64" transform="translate(-157.32 903.66) rotate(-42.58)"/><path class="cls-7" d="M1171.67,634.68l-155.42-6.57c-16.87,20.74-27.71,42.64-31.24,61.96l144.86,6.12c19.88-19.56,34.22-41.26,41.8-61.51Z"/><path class="cls-7" d="M1177.16,613.6c.84-6.1,.91-11.92,.17-17.31l-122.11-5.16c-6.16,4.51-12.25,9.5-18.17,14.95-.55,.51-1.1,1.02-1.65,1.53l141.76,5.99Z"/></g><g><path class="cls-2" d="M760.92,465.55l-14.39-7.73-2.02,3.76,.5,1.21c-19.21,2.18-42.2,21.19-57.5,49.68-14.58,27.17-18.11,55.41-10.78,72.9l-2.55,.06s-.06,2.15-.18,2.36c-.11,.21,.57,4.07,.57,4.07l14.39,7.73c20.67,11.1,53.54-9.91,73.41-46.92,19.87-37.01,19.22-76.01-1.45-87.11Z"/><path class="cls-4" d="M776.84,502.32l-55.37-29.72c-10.26,7.14-20.35,17.8-28.8,31.07l74.19,39.83c6.38-14.37,9.7-28.67,9.98-41.17Z"/><path class="cls-3" d="M751.28,570.02l-72.1-38.71c-3.99,11.36-6.03,22.43-6.15,32.32l54.7,29.36c8.19-5.56,16.28-13.38,23.55-22.98Z"/><ellipse class="cls-5" cx="710.83" cy="524.99" rx="76.06" ry="42.48" transform="translate(-87.93 902.97) rotate(-61.77)"/><path class="cls-7" d="M762.52,487.29c-.44-5.26-1.49-10.08-3.15-14.31l-81.77,24.64c-1.45,2.35-2.85,4.77-4.19,7.27-1.93,3.6-3.67,7.21-5.21,10.82l94.33-28.43Z"/><path class="cls-6" d="M760.94,510.47l-100.46,30.28c-2.07,11.17-2.09,21.54-.06,30.18l88.24-26.59c6.03-11.41,10.12-22.99,12.28-33.86Z"/><ellipse class="cls-2" cx="710.55" cy="524.84" rx="63.89" ry="35.69" transform="translate(-87.95 902.64) rotate(-61.77)"/><ellipse class="cls-5" cx="712.92" cy="526.11" rx="60.05" ry="33" transform="translate(-87.82 905.39) rotate(-61.77)"/><path class="cls-7" d="M753.55,501.7l-76.03,22.91c-4.65,12.83-6.2,25.21-4.67,35.11l70.87-21.36c6.3-12.77,9.58-25.64,9.83-36.67Z"/><path class="cls-7" d="M752.66,490.61c-.62-3.08-1.56-5.9-2.82-8.37l-59.74,18c-2.21,3.21-4.31,6.64-6.25,10.26-.18,.34-.36,.68-.54,1.02l69.35-20.9Z"/></g><g><path class="cls-2" d="M293.61,828.89l-5.06-15.53-4.06,1.32-.48,1.22c-15.39-11.7-45.14-13.86-75.89-3.84-29.32,9.55-51.39,27.52-58.18,45.23l-1.89-1.72s-1.53,1.51-1.76,1.58c-.23,.07-2.4,3.34-2.4,3.34l5.06,15.53c7.27,22.31,45.54,29.85,85.48,16.83,39.94-13.01,66.43-41.65,59.16-63.96Z"/><path class="cls-4" d="M279.7,866.46l-19.47-59.75c-12.35-1.94-27.01-1.2-42.29,2.54l26.08,80.06c14.55-5.97,26.83-14.01,35.67-22.85Z"/><path class="cls-3" d="M214.43,897.71l-25.35-77.81c-10.73,5.45-19.86,12.04-26.78,19.11l19.23,59.03c9.76,1.64,21.01,1.59,32.9-.33Z"/><ellipse class="cls-5" cx="216.33" cy="837.22" rx="76.06" ry="42.48" transform="translate(-248.69 108.19) rotate(-18.04)"/><path class="cls-7" d="M279.74,845.7c3.32-4.1,5.9-8.31,7.61-12.52l-76.13-38.71c-2.67,.69-5.36,1.48-8.06,2.36-3.88,1.26-7.64,2.68-11.24,4.22l87.81,44.66Z"/><path class="cls-6" d="M262.58,861.37l-93.52-47.56c-9.22,6.64-16.4,14.13-20.91,21.76l82.15,41.78c12.25-4.07,23.2-9.61,32.28-15.98Z"/><ellipse class="cls-2" cx="216.23" cy="836.92" rx="63.89" ry="35.69" transform="translate(-248.6 108.14) rotate(-18.04)"/><ellipse class="cls-5" cx="217.06" cy="839.47" rx="60.05" ry="33" transform="translate(-249.35 108.52) rotate(-18.04)"/><path class="cls-7" d="M263.29,849.91l-70.78-36c-12.23,6.05-21.91,13.93-27.64,22.15l65.98,33.55c13.38-4.87,24.64-11.91,32.45-19.7Z"/><path class="cls-7" d="M270.31,841.29c1.68-2.66,2.95-5.34,3.75-8l-55.61-28.28c-3.82,.79-7.7,1.82-11.61,3.09-.36,.12-.73,.24-1.09,.36l64.56,32.83Z"/></g><g><path class="cls-2" d="M1625.43,505.61l-16.31-.88-.23,4.26,.96,.89c-16.46,10.13-29.21,37.1-30.96,69.39-1.67,30.79,7.13,57.86,21.19,70.58l-2.29,1.14s.86,1.97,.84,2.21c-.01,.24,2.25,3.44,2.25,3.44l16.31,.88c23.43,1.27,44.26-31.71,46.54-73.65,2.27-41.95-14.88-76.98-38.31-78.25Z"/><path class="cls-4" d="M1655.46,532.14l-62.75-3.4c-6.26,10.82-10.86,24.76-12.88,40.36l84.08,4.56c-.32-15.72-3.39-30.08-8.45-41.51Z"/><path class="cls-3" d="M1661.06,604.29l-81.71-4.43c1.21,11.98,4.06,22.87,8.16,31.87l61.99,3.36c5.05-8.51,9.06-19.03,11.56-30.81Z"/><ellipse class="cls-5" cx="1605.32" cy="580.69" rx="76.06" ry="42.48" transform="translate(938.62 2152.24) rotate(-86.9)"/><path class="cls-7" d="M1636.11,524.61c-2.63-4.58-5.63-8.5-8.93-11.62l-63.57,57.03c-.32,2.74-.56,5.53-.71,8.36-.22,4.08-.26,8.09-.12,12.01l73.33-65.79Z"/><path class="cls-6" d="M1644.53,546.27l-78.09,70.07c2.86,10.99,7.26,20.39,12.76,27.35l68.6-61.55c.62-12.89-.6-25.11-3.26-35.87Z"/><ellipse class="cls-2" cx="1605" cy="580.67" rx="63.89" ry="35.69" transform="translate(938.34 2151.91) rotate(-86.9)"/><ellipse class="cls-5" cx="1607.69" cy="580.82" rx="60.05" ry="33" transform="translate(940.73 2154.72) rotate(-86.9)"/><path class="cls-7" d="M1634.1,541.47l-59.11,53.03c1.23,13.59,5.09,25.46,10.69,33.77l55.09-49.43c.29-14.23-2.22-27.28-6.67-37.37Z"/><path class="cls-7" d="M1628.59,531.81c-1.87-2.53-3.92-4.68-6.11-6.38l-46.44,41.67c-.64,3.85-1.08,7.84-1.31,11.94-.02,.38-.04,.77-.06,1.15l53.91-48.37Z"/></g><g><path class="cls-2" d="M1239.57,928.76l16.29-1.24-.32-4.25-1.07-.75c15.01-12.18,24.14-40.58,21.68-72.82-2.35-30.75-14.59-56.44-30.18-67.22l2.12-1.42s-1.1-1.84-1.12-2.08c-.02-.24-2.68-3.12-2.68-3.12l-16.29,1.24c-23.4,1.79-39.77,37.19-36.57,79.08,3.2,41.89,24.75,74.39,48.15,72.61Z"/><path class="cls-4" d="M1206.35,906.36l62.66-4.78c4.8-11.54,7.55-25.96,7.53-41.69l-83.96,6.41c2.36,15.55,7.27,29.38,13.77,40.06Z"/><path class="cls-3" d="M1191.42,835.55l81.59-6.23c-2.76-11.72-7-22.14-12.23-30.54l-61.9,4.72c-3.9,9.1-6.51,20.04-7.46,32.05Z"/><ellipse class="cls-5" cx="1249.75" cy="851.7" rx="42.48" ry="76.06" transform="translate(-61.19 97.57) rotate(-4.36)"/><path class="cls-7" d="M1226.51,911.31c3.2,4.2,6.68,7.69,10.36,10.36l55.62-64.81c-.04-2.76-.17-5.56-.38-8.39-.31-4.07-.8-8.05-1.44-11.92l-64.16,74.76Z"/><path class="cls-6" d="M1215.35,890.93l68.33-79.62c-4.27-10.52-9.85-19.28-16.2-25.46l-60.02,69.94c1.06,12.86,3.85,24.82,7.9,35.14Z"/><ellipse class="cls-2" cx="1250.07" cy="851.68" rx="35.69" ry="63.89" transform="translate(-61.19 97.6) rotate(-4.36)"/><ellipse class="cls-5" cx="1247.39" cy="851.88" rx="33" ry="60.05" transform="translate(-61.21 97.39) rotate(-4.36)"/><path class="cls-7" d="M1226.31,894.33l51.72-60.26c-2.99-13.32-8.35-24.58-14.98-32.1l-48.2,56.17c1.57,14.15,5.74,26.76,11.47,36.19Z"/><path class="cls-7" d="M1233.03,903.19c2.18,2.26,4.49,4.13,6.89,5.54l40.63-47.35c.14-3.9,.06-7.91-.26-12.01-.03-.38-.06-.76-.09-1.14l-47.17,54.97Z"/></g><g><path class="cls-2" d="M1117.81,465.95l10.92-12.14-3.17-2.85-1.29,.2c2.45-19.18-10.55-46.03-34.59-67.65-22.92-20.62-49.52-30.76-68.25-27.8l.55-2.49s-2.07-.57-2.25-.73c-.18-.16-4.09-.41-4.09-.41l-10.92,12.14c-15.69,17.44-3.1,54.36,28.13,82.46,31.23,28.1,69.27,36.73,84.96,19.29Z"/><path class="cls-4" d="M1078.3,472.68l42.03-46.72c-4.49-11.67-12.46-24-23.33-35.36l-56.32,62.6c12.44,9.61,25.55,16.24,37.62,19.48Z"/><path class="cls-3" d="M1018.62,431.75l54.73-60.84c-10.09-6.57-20.35-11.19-29.94-13.65l-41.52,46.15c3.46,9.27,9.13,19,16.73,28.33Z"/><ellipse class="cls-5" cx="1071.97" cy="403.17" rx="42.48" ry="76.06" transform="translate(55.29 930.46) rotate(-48.02)"/><path class="cls-7" d="M1096.31,462.33c5.21,.83,10.15,.95,14.65,.34l-4.51-85.28c-1.94-1.97-3.96-3.91-6.07-5.8-3.04-2.73-6.13-5.28-9.27-7.63l5.2,98.38Z"/><path class="cls-6" d="M1074.16,455.3l-5.54-104.77c-10.35-4.67-20.43-7.15-29.3-7.23l4.86,92.04c9.65,8.57,19.92,15.29,29.97,19.97Z"/><ellipse class="cls-2" cx="1072.18" cy="402.93" rx="35.69" ry="63.89" transform="translate(55.54 930.54) rotate(-48.02)"/><ellipse class="cls-5" cx="1070.39" cy="404.93" rx="33" ry="60.05" transform="translate(53.46 929.87) rotate(-48.02)"/><path class="cls-7" d="M1084.44,450.2l-4.19-79.3c-11.36-7.57-23.01-12.02-33-12.88l3.91,73.91c10.9,9.16,22.63,15.39,33.28,18.26Z"/><path class="cls-7" d="M1095.42,451.96c3.14,.13,6.1-.12,8.81-.75l-3.29-62.31c-2.59-2.91-5.42-5.76-8.48-8.51-.29-.26-.57-.51-.86-.76l3.82,72.33Z"/></g><g><path class="cls-2" d="M854.81,785.73l12.43-10.59-2.77-3.25-1.31,.02c4.96-18.68-4.38-47.02-25.36-71.63-20-23.47-45.02-37.03-63.98-36.56l.88-2.4s-1.98-.84-2.13-1.02c-.16-.18-4-.95-4-.95l-12.43,10.6c-17.86,15.22-10.24,53.48,17.01,85.45,27.25,31.97,63.82,45.55,81.67,30.33Z"/><path class="cls-4" d="M814.77,787.19l47.83-40.76c-2.91-12.16-9.18-25.43-18.46-38.13l-64.09,54.62c11.07,11.17,23.18,19.47,34.72,24.27Z"/><path class="cls-3" d="M761,738.75l62.28-53.08c-9.13-7.85-18.7-13.78-27.87-17.48l-47.25,40.27c2.2,9.65,6.54,20.03,12.84,30.29Z"/><ellipse class="cls-5" cx="817.66" cy="717.46" rx="42.48" ry="76.06" transform="translate(-270.03 701.81) rotate(-40.44)"/><path class="cls-7" d="M833.98,779.31c5.06,1.51,9.93,2.28,14.47,2.27l6.79-85.13c-1.66-2.21-3.41-4.39-5.25-6.55-2.65-3.11-5.38-6.04-8.18-8.79l-7.83,98.2Z"/><path class="cls-6" d="M812.96,769.42l8.34-104.59c-9.65-5.99-19.31-9.78-28.09-11.04l-7.33,91.87c8.43,9.77,17.73,17.79,27.07,23.75Z"/><ellipse class="cls-2" cx="817.9" cy="717.25" rx="35.69" ry="63.89" transform="translate(-269.84 701.91) rotate(-40.44)"/><ellipse class="cls-5" cx="815.86" cy="718.99" rx="33" ry="60.05" transform="translate(-271.46 701) rotate(-40.44)"/><path class="cls-7" d="M823.82,765.72l6.31-79.16c-10.26-9-21.23-14.95-31.01-17.12l-5.88,73.78c9.6,10.52,20.4,18.25,30.58,22.5Z"/><path class="cls-7" d="M834.47,768.92c3.1,.54,6.06,.69,8.83,.42l4.96-62.19c-2.19-3.23-4.61-6.43-7.28-9.56-.25-.29-.5-.58-.75-.87l-5.76,72.2Z"/></g><g><path class="cls-2" d="M792.66,287.11l25.99,21.07,5.5-6.79-.54-2.63c39.49,2.99,93.05-26.43,134.77-77.89,39.78-49.07,57.72-104.54,49.68-142.54l5.16,.86s.95-4.3,1.26-4.68c.31-.38,.41-8.41,.41-8.41l-25.99-21.07c-37.34-30.27-111.54-.61-165.73,66.24-54.19,66.85-67.85,145.58-30.51,175.84Z"/><path class="cls-4" d="M774.74,207l100,81.06c23.39-10.42,47.78-28.01,69.88-51.45l-134-108.62c-18.36,26.47-30.53,53.97-35.88,79.01Z"/><path class="cls-3" d="M852.18,80.59l130.22,105.56c12.39-21.33,20.75-42.81,24.77-62.68l-98.79-80.08c-18.61,8.05-37.9,20.67-56.2,37.2Z"/><ellipse class="cls-5" cx="916.27" cy="186.72" rx="155.81" ry="87.03" transform="translate(194.22 780.91) rotate(-50.97)"/><path class="cls-7" d="M797.8,242.75c-1.14,10.75-.88,20.86,.84,30l174-18.2c3.82-4.17,7.57-8.51,11.23-13.02,5.27-6.5,10.15-13.11,14.64-19.77l-200.72,20.99Z"/><path class="cls-6" d="M809.86,196.7l213.76-22.36c8.46-21.67,12.47-42.55,11.71-60.7l-187.77,19.64c-16.52,20.64-29.19,42.37-37.7,63.42Z"/><ellipse class="cls-2" cx="916.78" cy="187.14" rx="130.88" ry="73.1" transform="translate(194.09 781.46) rotate(-50.97)"/><ellipse class="cls-5" cx="912.5" cy="183.67" rx="123.01" ry="67.6" transform="translate(195.2 776.86) rotate(-50.97)"/><path class="cls-7" d="M821.38,217.19l161.79-16.92c14.29-24.03,22.16-48.34,22.87-68.87l-150.8,15.77c-17.59,23.27-29.11,47.91-33.86,70.01Z"/><path class="cls-7" d="M818.91,239.84c.07,6.44,.88,12.47,2.46,17.94l127.12-13.29c5.69-5.61,11.22-11.7,16.52-18.24,.5-.61,.98-1.22,1.47-1.84l-147.57,15.43Z"/></g><g><path class="cls-2" d="M1640.55,787.31l27.53,21.39,.73-13.96,1.29-5.05c24-8.49,51.69-47.07,90.31-96.79,36.83-47.41,67.85-80.95,72.05-107.13l3.21-4.48s11.28,10.28,3.89-2.64c-.23-.41,10.22-3.86,10.22-3.86l-27.53-21.39c-16.02-12.45-69.69,29.82-119.86,94.41-50.18,64.59-77.86,127.04-61.84,139.49Z"/><path class="cls-4" d="M1648.99,732.17l42.91,33.34c17.18-14.12,36.73-33.87,56.26-57.36l-57.5-44.67c-17.93,24.73-32.23,48.56-41.67,68.7Z"/><path class="cls-3" d="M1728.19,616.83l55.88,43.41c12.94-19.27,23.39-37.57,30.75-53.49l-42.39-32.93c-13.61,11.06-28.75,25.71-44.23,43.02Z"/><ellipse class="cls-5" cx="1758.93" cy="691.76" rx="148.09" ry="36.74" transform="translate(133.56 1656.39) rotate(-52.16)"/><path class="cls-7" d="M1667.88,774.58l75.5-9.48c8.63-8.6,17.54-18.22,26.49-28.66l-90.65,11.38c-4.86,9.76-8.68,18.78-11.34,26.76Z"/><path class="cls-6" d="M1685.98,734.97l95.03-11.93c2.31-2.87,4.62-5.78,6.93-8.75,14.25-18.34,26.68-36.51,36.82-53.41l-97.89,12.29c-16.45,21.54-30.35,42.74-40.89,61.8Z"/><path class="cls-2" d="M1737.25,674.91c32.87-42.32,66.9-73.72,86.06-80.99,5.41-2.05,9.63-2.19,12.31-.1,12.18,9.47-12.11,61.12-54.26,115.37-42.15,54.25-86.19,90.56-98.38,81.1-2.68-2.08-3.59-6.21-2.94-11.96,2.32-20.37,24.33-61.1,57.2-103.42Z"/><path class="cls-5" d="M1737.25,674.91c32.87-42.32,66.9-73.72,86.06-80.99,8.85,10.85-13.91,57.84-52.29,107.24-38.37,49.39-78.28,83.07-90.98,77.18,2.32-20.37,24.33-61.1,57.2-103.42Z"/><path class="cls-7" d="M1686.69,756.22l39.48-4.96c5.98-5.64,12.24-12.02,18.66-19.01l-49.61,6.23c-3.36,6.32-6.22,12.27-8.53,17.74Z"/><path class="cls-7" d="M1737.25,674.91c-12.03,15.48-22.6,30.75-31.29,44.89l55.75-7c3.1-3.77,6.21-7.66,9.31-11.65,10.81-13.91,20.38-27.63,28.35-40.41l-56.55,7.1c-1.86,2.32-3.73,4.68-5.59,7.07Z"/></g><g><path class="cls-2" d="M1370.59,826.77l3.56,25.4,7.54-6.99,3.27-2c17.02,7.82,51.41,1.66,97.28-4.78,43.74-6.14,77.3-7.94,92.94-19.6l3.99-.71s.68,11.21,3.4,.6c.09-.33,7.37,3.2,7.37,3.2l-3.56-25.4c-2.07-14.78-52.06-19.99-111.66-11.63-59.59,8.36-106.22,27.13-104.14,41.91Z"/><path class="cls-4" d="M1403.32,801.99l5.56,39.59c16.31,1.35,36.75,.95,59.1-1.43l-7.45-53.05c-22.14,3.86-41.9,9.1-57.21,14.89Z"/><path class="cls-3" d="M1504.25,781.73l7.24,51.56c16.71-3.54,31.61-7.84,43.65-12.47l-5.49-39.11c-12.85-1.14-28.36-1.17-45.4,.03Z"/><ellipse class="cls-5" cx="1482.06" cy="837.03" rx="108.96" ry="27.03" transform="translate(-101.94 214.09) rotate(-7.99)"/><path class="cls-7" d="M1391.55,834.06l44.7,33.7c8.97-.12,18.6-.63,28.67-1.54l-53.68-40.47c-7.57,2.66-14.21,5.46-19.7,8.31Z"/><path class="cls-6" d="M1421.4,822.44l56.27,42.42c2.69-.33,5.4-.68,8.14-1.06,16.92-2.37,32.8-5.59,46.81-9.31l-57.96-43.7c-19.73,2.93-37.92,7-53.26,11.65Z"/><path class="cls-2" d="M1479.25,817.02c39.04-5.48,73.1-4.6,86.94,1.38,3.91,1.69,6.2,3.78,6.55,6.26,1.58,11.24-37.72,26.05-87.78,33.07-50.06,7.02-91.91,3.61-93.49-7.63-.35-2.47,1.29-5.12,4.58-7.82,11.66-9.56,44.16-19.78,83.2-25.25Z"/><path class="cls-5" d="M1479.25,817.02c39.04-5.48,73.1-4.6,86.94,1.38-.89,10.26-37,23.39-82.57,29.79-45.57,6.4-83.9,3.71-87.58-5.91,11.66-9.56,44.16-19.78,83.2-25.25Z"/><path class="cls-7" d="M1410.89,834.02l23.38,17.63c6.05,.09,12.62-.07,19.59-.47l-29.37-22.14c-5.01,1.61-9.57,3.29-13.6,4.99Z"/><path class="cls-7" d="M1479.25,817.02c-14.28,2-27.69,4.64-39.52,7.65l33.01,24.89c3.57-.4,7.21-.86,10.89-1.37,12.84-1.8,24.92-4.14,35.68-6.79l-33.48-25.24c-2.17,.27-4.36,.56-6.57,.87Z"/></g><g><path class="cls-2" d="M1202.53,374.07l11.79,14.82,2.17-7.27,1.33-2.5c13.75-1.41,33.31-18.22,60.07-39.51,25.52-20.3,46.18-34.03,51.76-47.3l2.27-1.95s4.64,6.87,2.39-.89c-.07-.24,5.89-.73,5.89-.73l-11.79-14.82c-6.86-8.62-40.6,6.81-75.36,34.46-34.76,27.66-57.38,57.07-50.52,65.69Z"/><path class="cls-4" d="M1214.05,346.04l18.38,23.09c10.88-5.25,23.73-13.17,37.04-23.06l-24.62-30.95c-12.63,10.76-23.23,21.5-30.8,30.91Z"/><path class="cls-3" d="M1270.64,295.32l23.93,30.07c9.3-8.51,17.16-16.83,23.08-24.29l-18.15-22.82c-8.6,4.09-18.47,9.89-28.86,17.03Z"/><ellipse class="cls-5" cx="1277.26" cy="338.81" rx="80.43" ry="19.95" transform="translate(66.82 868.92) rotate(-38.51)"/><path class="cls-7" d="M1218.59,370.85l41.06,4.67c5.66-3.43,11.59-7.37,17.65-11.73l-49.3-5.61c-3.82,4.53-6.99,8.8-9.41,12.67Z"/><path class="cls-6" d="M1233.22,352.27l51.69,5.88c1.59-1.22,3.18-2.46,4.78-3.73,9.87-7.85,18.76-15.85,26.28-23.47l-53.24-6.06c-11.45,9.26-21.49,18.67-29.5,27.37Z"/><path class="cls-2" d="M1267.97,327.14c22.77-18.12,44.76-30.33,55.8-31.72,3.12-.39,5.36,.08,6.51,1.52,5.22,6.56-14.22,30.71-43.42,53.94-29.2,23.23-57.1,36.75-62.32,30.19-1.15-1.44-1.1-3.74-.02-6.69,3.83-10.45,20.67-29.13,43.44-47.25Z"/><path class="cls-5" d="M1267.97,327.14c22.77-18.12,44.76-30.33,55.8-31.72,3.28,6.86-14.76,28.74-41.34,49.89-26.58,21.15-51.96,33.81-57.91,29.07,3.83-10.45,20.67-29.13,43.44-47.25Z"/><path class="cls-7" d="M1230.87,363.57l21.47,2.44c3.88-2.21,8-4.77,12.28-7.64l-26.98-3.07c-2.58,2.91-4.86,5.68-6.78,8.27Z"/><path class="cls-7" d="M1267.97,327.14c-8.33,6.63-15.87,13.33-22.27,19.68l30.32,3.45c2.12-1.59,4.26-3.24,6.41-4.95,7.49-5.96,14.3-11.97,20.14-17.69l-30.75-3.5c-1.28,.99-2.57,1.99-3.85,3.02Z"/></g><g><path class="cls-2" d="M87.59,257.8l-13.54,13.23,7.46,1.42,2.62,1.07c2.79,13.54,21.5,31.29,45.4,55.75,22.78,23.32,38.54,42.49,52.31,46.69l2.17,2.06s-6.37,5.31,1.13,2.29c.24-.09,1.32,5.78,1.32,5.78l13.54-13.23c7.88-7.7-10.89-39.7-41.93-71.48-31.04-31.78-62.59-51.29-70.48-43.59Z"/><path class="cls-4" d="M116.64,266.42l-21.11,20.62c6.33,10.29,15.51,22.27,26.7,34.51l28.29-27.64c-11.98-11.48-23.74-20.93-33.88-27.5Z"/><path class="cls-3" d="M172.84,317.57l-27.49,26.86c9.41,8.39,18.49,15.37,26.51,20.5l20.86-20.37c-4.94-8.14-11.71-17.37-19.87-26.98Z"/><ellipse class="cls-5" cx="130.25" cy="328.57" rx="19.95" ry="80.43" transform="translate(-192.52 184.55) rotate(-44.33)"/><path class="cls-7" d="M92.42,273.45l-.48,41.32c3.99,5.28,8.51,10.78,13.46,16.37l.58-49.62c-4.89-3.34-9.46-6.06-13.56-8.08Z"/><path class="cls-6" d="M112.39,286.12l-.61,52.02c1.37,1.46,2.77,2.92,4.19,4.37,8.81,9.02,17.67,17.06,26.01,23.76l.63-53.58c-10.37-10.45-20.75-19.49-30.23-26.57Z"/><path class="cls-2" d="M140.92,318.15c20.34,20.82,34.71,41.45,37.21,52.3,.7,3.06,.46,5.34-.85,6.63-5.99,5.86-31.99-11.04-58.06-37.73-26.07-26.69-42.35-53.07-36.36-58.93,1.32-1.29,3.61-1.47,6.65-.7,10.79,2.75,31.08,17.61,51.41,38.43Z"/><path class="cls-5" d="M140.92,318.15c20.34,20.82,34.71,41.45,37.21,52.3-6.49,3.96-30.09-11.76-53.83-36.06-23.74-24.3-38.91-48.26-34.8-54.66,10.79,2.75,31.08,17.61,51.41,38.43Z"/><path class="cls-7" d="M100.91,284.93l-.25,21.61c2.59,3.63,5.56,7.48,8.85,11.44l.32-27.15c-3.15-2.28-6.14-4.26-8.91-5.9Z"/><path class="cls-7" d="M140.92,318.15c-7.44-7.62-14.87-14.43-21.84-20.15l-.36,30.51c1.8,1.95,3.66,3.91,5.58,5.87,6.69,6.84,13.36,13.01,19.65,18.24l.36-30.95c-1.11-1.17-2.24-2.35-3.39-3.53Z"/></g><g><path class="cls-2" d="M188.83,731.74l7.44,17.41,4.02-6.44,1.94-2.06c13.63,2.29,36.95-8.73,68.4-22.16,29.99-12.81,53.55-20.56,62.45-31.88l2.71-1.28s2.65,7.86,2.54-.23c0-.25,5.87,.86,5.87,.86l-7.44-17.41c-4.33-10.13-40.95-4.2-81.8,13.24-40.85,17.45-70.46,39.81-66.13,49.94Z"/><path class="cls-4" d="M207.37,707.78l11.59,27.14c11.88-2.18,26.37-6.41,41.83-12.41l-15.53-36.37c-15.03,7.02-28.1,14.56-37.89,21.64Z"/><path class="cls-3" d="M275.38,673.88l15.1,35.34c11.22-5.74,21.01-11.68,28.7-17.3l-11.45-26.81c-9.38,1.67-20.43,4.63-32.34,8.77Z"/><ellipse class="cls-5" cx="270.24" cy="717.56" rx="80.43" ry="19.95" transform="translate(-260.13 163.82) rotate(-23.13)"/><path class="cls-7" d="M205.17,732.9l38.35,15.4c6.37-1.81,13.13-4.03,20.13-6.63l-46.05-18.49c-4.88,3.36-9.07,6.63-12.43,9.72Z"/><path class="cls-6" d="M224.2,718.86l48.28,19.38c1.85-.75,3.72-1.53,5.59-2.33,11.6-4.95,22.29-10.31,31.56-15.66l-49.73-19.96c-13.49,5.89-25.67,12.3-35.71,18.57Z"/><path class="cls-2" d="M264.38,703.85c26.76-11.43,51.2-17.37,62.22-15.78,3.11,.45,5.15,1.5,5.87,3.2,3.29,7.71-21.86,25.83-56.17,40.49-34.31,14.66-64.8,20.29-68.09,12.59-.72-1.7-.07-3.9,1.75-6.45,6.47-9.06,27.66-22.61,54.42-34.04Z"/><path class="cls-5" d="M264.38,703.85c26.76-11.43,51.2-17.37,62.22-15.78,1.34,7.49-21.85,23.8-53.09,37.14-31.24,13.34-59.07,18.82-63.54,12.67,6.47-9.06,27.66-22.61,54.42-34.04Z"/><path class="cls-7" d="M218.94,729.14l20.06,8.05c4.32-1.1,8.98-2.48,13.87-4.11l-25.2-10.12c-3.26,2.12-6.19,4.19-8.73,6.17Z"/><path class="cls-7" d="M264.38,703.85c-9.79,4.18-18.84,8.65-26.69,13.07l28.32,11.37c2.47-.97,4.97-2,7.49-3.08,8.8-3.76,16.96-7.75,24.11-11.72l-28.72-11.53c-1.5,.61-3,1.24-4.52,1.89Z"/></g><g><path class="cls-2" d="M400.88,617.79l12.38,1.57-2.32-4.43-.52-1.79c5.84-6.99,7.34-23.92,10.16-46.28,2.7-21.32,6.13-37.3,2.65-46.13l.17-1.97s5.35,1.11,.72-1.52c-.15-.08,2.44-3.05,2.44-3.05l-12.38-1.57c-7.2-.91-16.02,21.89-19.7,50.94-3.67,29.04-.81,53.33,6.39,54.24Z"/><path class="cls-4" d="M393.42,599.26l19.3,2.44c2.71-7.48,5.13-17.13,6.87-27.93l-25.86-3.27c-1.01,10.89-1.07,20.83-.31,28.76Z"/><path class="cls-3" d="M396.78,549.3l25.13,3.18c.47-8.3,.35-15.84-.29-22.08l-19.06-2.41c-2.17,5.89-4.17,13.16-5.78,21.32Z"/><ellipse class="cls-5" cx="419.91" cy="566.77" rx="53.01" ry="13.15" transform="translate(-195.08 912.21) rotate(-82.79)"/><path class="cls-7" d="M406.97,608.88l21.52-16.69c1.09-4.22,2.08-8.81,2.93-13.66l-25.84,20.04c.28,3.89,.75,7.37,1.39,10.31Z"/><path class="cls-6" d="M405.33,593.38l27.09-21.01c.19-1.3,.37-2.62,.54-3.96,1.04-8.25,1.56-16.11,1.6-23.16l-27.91,21.64c-1.14,9.64-1.55,18.7-1.32,26.49Z"/><path class="cls-2" d="M410.16,565.53c2.41-19.03,7.16-34.9,11.74-40.64,1.29-1.62,2.57-2.43,3.77-2.28,5.48,.69,7.42,21.03,4.33,45.43-3.09,24.4-10.03,43.61-15.51,42.92-1.21-.15-2.24-1.26-3.09-3.15-3-6.69-3.65-23.26-1.24-42.28Z"/><path class="cls-5" d="M410.16,565.53c2.41-19.03,7.16-34.9,11.74-40.64,4.7,1.73,6.26,20.35,3.45,42.56-2.81,22.21-8.96,39.86-13.95,40.36-3-6.69-3.65-23.26-1.24-42.28Z"/><path class="cls-7" d="M409.42,599.79l11.26-8.73c.81-2.83,1.58-5.93,2.28-9.26l-14.14,10.97c.12,2.56,.32,4.91,.61,7.02Z"/><path class="cls-7" d="M410.16,565.53c-.88,6.96-1.35,13.59-1.45,19.53l15.89-12.32c.27-1.73,.52-3.49,.74-5.29,.79-6.26,1.24-12.23,1.36-17.62l-16.12,12.5c-.15,1.05-.29,2.12-.43,3.2Z"/></g><g><path class="cls-2" d="M1266.03,514.82l14.66,4.91-1.75-5.95-.2-2.3c8.79-7.08,14.71-27.29,23.57-53.77,8.45-25.25,16.5-43.84,14.41-55.41l.69-2.35s6.23,2.64,1.24-1.67c-.16-.14,3.71-3.12,3.71-3.12l-14.66-4.91c-8.53-2.85-24.78,22.71-36.29,57.11-11.51,34.4-13.92,64.59-5.39,67.45Z"/><path class="cls-4" d="M1261.46,490.5l22.85,7.65c5.11-8.43,10.39-19.57,15.11-32.27l-30.62-10.24c-3.87,12.98-6.35,25.05-7.34,34.86Z"/><path class="cls-3" d="M1277.66,430.61l29.76,9.96c2.58-9.97,4.27-19.16,5.01-26.9l-22.58-7.55c-4.07,6.63-8.25,14.98-12.19,24.5Z"/><ellipse class="cls-5" cx="1301.53" cy="457.44" rx="65.67" ry="16.29" transform="translate(454.79 1546.59) rotate(-71.5)"/><path class="cls-7" d="M1275.59,505.47l30.2-15.06c2.35-4.87,4.66-10.2,6.87-15.88l-36.26,18.08c-.6,4.8-.87,9.13-.81,12.86Z"/><path class="cls-6" d="M1277.35,486.24l38.01-18.95c.55-1.54,1.09-3.1,1.61-4.68,3.27-9.77,5.8-19.2,7.56-27.76l-39.15,19.52c-3.72,11.43-6.42,22.34-8.03,31.86Z"/><path class="cls-2" d="M1289.98,453.58c7.54-22.53,17.17-40.67,24.11-46.53,1.96-1.65,3.71-2.33,5.14-1.85,6.49,2.17,3.91,27.35-5.75,56.24-9.67,28.89-22.76,50.56-29.25,48.38-1.43-.48-2.42-2.07-2.99-4.57-2.02-8.86,1.2-29.14,8.74-51.67Z"/><path class="cls-5" d="M1289.98,453.58c7.54-22.53,17.17-40.67,24.11-46.53,5.3,3.24,2.68,26.25-6.12,52.55-8.8,26.3-20.55,46.26-26.73,45.66-2.02-8.86,1.2-29.14,8.74-51.67Z"/><path class="cls-7" d="M1280.77,495.02l15.79-7.87c1.67-3.24,3.36-6.83,5.01-10.69l-19.84,9.89c-.48,3.14-.8,6.05-.96,8.67Z"/><path class="cls-7" d="M1289.98,453.58c-2.76,8.24-4.94,16.19-6.5,23.38l22.3-11.12c.75-2.03,1.48-4.12,2.19-6.24,2.48-7.41,4.47-14.56,5.93-21.07l-22.62,11.28c-.44,1.24-.87,2.5-1.3,3.78Z"/></g><g><circle class="cls-5" cx="1405.86" cy="623.29" r="108.96"/><path class="cls-7" d="M1451.72,722.15c-4.65,2.16-9.48,4.01-14.46,5.5l-135.76-135.76c1.5-4.98,3.34-9.81,5.5-14.46l144.72,144.72Z"/><path class="cls-6" d="M1473.43,708.76l-153.04-153.04c10.31-13.02,23.52-23.63,38.66-30.85l145.22,145.22c-7.22,15.14-17.83,28.36-30.85,38.66Z"/><circle class="cls-2" cx="1405.86" cy="623.29" r="91.52" transform="translate(-28.97 1176.65) rotate(-45)"/><circle class="cls-5" cx="1405.86" cy="623.29" r="86.02" transform="translate(-28.97 1176.65) rotate(-45)"/><path class="cls-7" d="M1447.44,698.6l-116.89-116.89c7.19-12.99,17.64-23.92,30.25-31.69l118.34,118.34c-7.77,12.61-18.7,23.06-31.69,30.25Z"/><path class="cls-7" d="M1427.25,706.63c-5.8,1.48-11.83,2.38-18.03,2.62l-89.31-89.31c.24-6.2,1.13-12.23,2.62-18.03l104.73,104.73Z"/></g><g><path class="cls-2" d="M1891.16,491.32l-4.37,16.53-4.32-1.14-.57-1.25c-15.39,13.14-46.36,17.16-79.09,8.51-31.21-8.25-55.34-25.72-63.49-43.82l-1.87,1.91s-1.69-1.49-1.93-1.55-2.71-3.35-2.71-3.35l4.37-16.53c6.27-23.75,45.83-33.9,88.35-22.66,42.52,11.23,71.9,39.59,65.63,63.34Z"/><path class="cls-4" d="M1874.39,452.86l-16.81,63.61c-12.79,2.76-28.16,2.85-44.35-.15l22.52-85.23c15.56,5.38,28.87,13.06,38.64,21.78Z"/><path class="cls-3" d="M1804.31,424.07l-21.88,82.83c-11.54-5.06-21.47-11.4-29.13-18.39l16.6-62.84c10.11-2.29,21.87-2.9,34.41-1.6Z"/><ellipse class="cls-5" cx="1809.88" cy="487.19" rx="44.48" ry="79.63" transform="translate(876.53 2112.57) rotate(-75.2)"/><path class="cls-7" d="M1875.66,474.57c3.71,4.09,6.65,8.34,8.7,12.63l-77.28,44.98c-2.83-.57-5.69-1.23-8.56-1.98-4.13-1.09-8.14-2.35-12-3.74l89.14-51.88Z"/><path class="cls-6" d="M1856.79,459.21l-94.93,55.25c-10.03-6.39-17.98-13.79-23.14-21.51l83.39-48.54c13.04,3.53,24.82,8.67,34.68,14.79Z"/><ellipse class="cls-2" cx="1809.8" cy="487.51" rx="37.36" ry="66.89" transform="translate(876.15 2112.73) rotate(-75.2)"/><ellipse class="cls-5" cx="1810.52" cy="484.79" rx="34.55" ry="62.87" transform="translate(879.32 2111.4) rotate(-75.2)"/><path class="cls-7" d="M1858.22,471.13l-71.85,41.82c-13.15-5.6-23.72-13.26-30.21-21.51l66.97-38.98c14.27,4.3,26.46,10.99,35.09,18.67Z"/><path class="cls-7" d="M1866.07,479.74c1.92,2.68,3.4,5.41,4.39,8.14l-56.45,32.86c-4.04-.6-8.16-1.44-12.32-2.54-.39-.1-.78-.21-1.16-.31l65.54-38.14Z"/></g><g><path class="cls-2" d="M1729.5,93.67l9.06,14.5-3.79,2.37-1.3-.44c-.96,20.21-19.24,45.54-47.96,63.47-27.38,17.1-56.64,22.72-75.42,16.26l.11,2.67s-2.24,.21-2.45,.35c-.21,.13-4.29-.32-4.29-.32l-9.06-14.5c-13.01-20.84,6.68-56.61,43.99-79.9,37.3-23.29,78.09-25.28,91.1-4.45Z"/><path class="cls-4" d="M1690,79.55l34.84,55.8c-6.75,11.21-17.21,22.48-30.48,32.22l-46.69-74.78c14.58-7.65,29.29-12.1,42.33-13.24Z"/><path class="cls-3" d="M1621.02,110.9l45.37,72.67c-11.59,4.94-23.02,7.84-33.35,8.63l-34.42-55.13c5.25-8.93,12.86-17.93,22.4-26.17Z"/><ellipse class="cls-5" cx="1670.83" cy="150.06" rx="79.63" ry="44.48" transform="translate(174.11 907.7) rotate(-31.98)"/><path class="cls-7" d="M1706.68,93.49c5.52,.1,10.63,.86,15.16,2.31l-20.14,87.11c-2.35,1.68-4.79,3.31-7.31,4.88-3.63,2.26-7.28,4.33-10.95,6.19l23.24-100.49Z"/><path class="cls-6" d="M1682.57,96.72l-24.75,107.02c-11.52,2.93-22.36,3.66-31.52,2.13l21.74-94.01c11.51-7.09,23.32-12.15,34.53-15.14Z"/><ellipse class="cls-2" cx="1671.01" cy="150.35" rx="66.89" ry="37.36" transform="translate(173.98 907.84) rotate(-31.98)"/><ellipse class="cls-5" cx="1669.52" cy="147.96" rx="62.87" ry="34.55" transform="translate(175.02 906.69) rotate(-31.98)"/><path class="cls-7" d="M1692.24,103.84l-18.73,81c-13.09,5.74-25.91,8.21-36.36,7.28l17.46-75.5c12.9-7.46,26.13-11.76,37.64-12.78Z"/><path class="cls-7" d="M1703.88,104.02c3.26,.44,6.27,1.23,8.94,2.37l-14.72,63.64c-3.2,2.53-6.64,4.96-10.29,7.24-.34,.21-.68,.42-1.02,.63l17.08-73.88Z"/></g><g><path class="cls-2" d="M406.38,86.43l16.08,18.82-4.92,4.2-1.95-.35c2.96,29.15-17.77,69.34-55.04,101.18-35.54,30.36-76.23,44.7-104.5,39.48l.74,3.8s-3.16,.78-3.44,1.02-6.22,.46-6.22,.46l-16.08-18.82c-23.1-27.04-2.59-82.5,45.83-123.86,48.41-41.37,106.39-52.98,129.5-25.94Z"/><path class="cls-4" d="M346.78,74.7l61.88,72.42c-7.26,17.5-19.81,35.88-36.73,52.68l-82.92-97.05c19.23-14.09,39.34-23.62,57.76-28.06Z"/><path class="cls-3" d="M254.75,134.4l80.58,94.31c-15.54,9.57-31.27,16.17-45.89,19.53l-61.13-71.55c5.6-13.92,14.57-28.43,26.45-42.29Z"/><ellipse class="cls-5" cx="334.49" cy="179.78" rx="115.3" ry="64.4" transform="translate(-36.6 260.38) rotate(-40.51)"/><path class="cls-7" d="M373.66,91.07c7.93-1.05,15.41-1.05,22.21,.05l-10.13,129.07c-3.01,2.91-6.15,5.77-9.42,8.56-4.71,4.02-9.5,7.76-14.35,11.21l11.69-148.88Z"/><path class="cls-6" d="M339.83,100.88l-12.45,158.56c-15.87,6.67-31.24,10.04-44.68,9.83l10.93-139.28c14.95-12.62,30.78-22.4,46.19-29.1Z"/><ellipse class="cls-2" cx="334.8" cy="180.15" rx="96.85" ry="54.1" transform="translate(-36.77 260.67) rotate(-40.51)"/><ellipse class="cls-5" cx="332.16" cy="177.06" rx="91.03" ry="50.03" transform="translate(-35.39 258.21) rotate(-40.51)"/><path class="cls-7" d="M355.21,109.01l-9.42,120.01c-17.5,11.03-35.34,17.32-50.51,18.24l8.78-111.86c16.88-13.45,34.89-22.45,51.15-26.39Z"/><path class="cls-7" d="M371.92,106.75c4.77-.07,9.24,.41,13.31,1.48l-7.4,94.29c-4.04,4.31-8.44,8.53-13.18,12.57-.44,.38-.89,.75-1.33,1.12l8.59-109.46Z"/></g><g><path class="cls-2" d="M1438.96,401.4l-11.14-4.3,3.97-2.68,1.25-1.27c-1.75-8.54,4.68-23.48,12.44-43.6,7.4-19.18,11.77-34.21,18.7-40.07l.75-1.73s-5.01-1.49,.09-1.61c.16,0-.67-3.68-.67-3.68l11.14,4.3c6.48,2.5,3.56,25.72-6.52,51.85-10.09,26.13-23.52,45.29-30,42.79Z"/><path class="cls-4" d="M1453.65,389.18l-17.36-6.7c1.11-7.54,3.45-16.76,6.89-26.64l23.27,8.98c-4.09,9.63-8.55,18.04-12.79,24.36Z"/><path class="cls-3" d="M1473.5,345.56l-22.61-8.73c3.37-7.2,6.89-13.5,10.26-18.47l17.15,6.62c-.84,5.95-2.46,12.98-4.81,20.58Z"/><ellipse class="cls-5" cx="1446.09" cy="349.78" rx="50.72" ry="12.58" transform="translate(599.09 1572.94) rotate(-68.9)"/><path class="cls-7" d="M1437.87,391.13l-10.56-23.83c1-4.05,2.25-8.37,3.73-12.84l12.68,28.61c-2.01,3.15-3.98,5.87-5.85,8.05Z"/><path class="cls-6" d="M1446.29,378.82l-13.29-29.99c.43-1.19,.88-2.38,1.34-3.58,2.86-7.42,6-14.28,9.17-20.24l13.69,30.9c-3.41,8.63-7.18,16.45-10.91,22.92Z"/><path class="cls-2" d="M1454.86,353.17c6.61-17.12,9.81-32.66,8.56-39.56-.35-1.95-1.06-3.21-2.14-3.63-4.93-1.9-15.79,14.35-24.27,36.3s-11.34,41.29-6.41,43.19c1.08,.42,2.46-.04,4.03-1.25,5.57-4.28,13.63-17.93,20.24-35.06Z"/><path class="cls-5" d="M1454.86,353.17c6.61-17.12,9.81-32.66,8.56-39.56-4.75-.68-14.51,14.3-22.23,34.29-7.71,19.99-10.54,37.64-6.57,40.33,5.57-4.28,13.63-17.93,20.24-35.06Z"/><path class="cls-7" d="M1439.94,382.37l-5.52-12.46c.6-2.75,1.36-5.72,2.28-8.83l6.94,15.66c-1.26,2.1-2.5,3.99-3.7,5.64Z"/><path class="cls-7" d="M1454.86,353.17c-2.42,6.26-5.03,12.06-7.64,17.11l-7.8-17.6c.56-1.58,1.15-3.18,1.77-4.79,2.17-5.63,4.51-10.86,6.85-15.46l7.91,17.85c-.35,.96-.71,1.92-1.09,2.89Z"/></g><g><path class="cls-2" d="M650.43,304.13l7.78-9.06,1.2,4.64,.78,1.61c8.63,1.21,20.57,12.27,36.93,26.31,15.6,13.39,28.3,22.53,31.5,31.03l1.38,1.28s3.08-4.22,1.49,.62c-.05,.15,3.69,.6,3.69,.6l-7.78,9.06c-4.53,5.27-25.43-5.25-46.68-23.49-21.25-18.25-34.81-37.32-30.29-42.59Z"/><path class="cls-4" d="M657.03,322.07l12.12-14.12c6.73,3.57,14.64,8.86,22.8,15.41l-16.25,18.92c-7.71-7.08-14.14-14.09-18.68-20.21Z"/><path class="cls-3" d="M691.5,355.36l15.79-18.39c5.66,5.58,10.42,11.01,13.97,15.85l-11.98,13.95c-5.32-2.78-11.41-6.67-17.79-11.41Z"/><ellipse class="cls-5" cx="696.69" cy="328.12" rx="12.58" ry="50.72" transform="translate(-6.09 642.97) rotate(-49.35)"/><path class="cls-7" d="M660.48,306.54l25.99-1.98c3.48,2.3,7.13,4.92,10.85,7.81l-31.2,2.37c-2.3-2.94-4.2-5.71-5.63-8.2Z"/><path class="cls-6" d="M669.26,318.6l32.71-2.49c.97,.8,1.95,1.62,2.92,2.46,6.04,5.18,11.45,10.43,16.01,15.41l-33.69,2.56c-6.99-6.11-13.11-12.27-17.95-17.95Z"/><path class="cls-2" d="M690.57,335.25c13.92,11.96,27.49,20.17,34.42,21.3,1.96,.32,3.38,.08,4.14-.81,3.44-4.01-8.24-19.69-26.09-35.01-17.85-15.33-35.12-24.51-38.56-20.5-.76,.88-.78,2.33-.17,4.21,2.17,6.68,12.34,18.85,26.26,30.8Z"/><path class="cls-5" d="M690.57,335.25c13.92,11.96,27.49,20.17,34.42,21.3,2.23-4.25-8.62-18.46-24.88-32.42-16.25-13.96-31.95-22.53-35.81-19.68,2.17,6.68,12.34,18.85,26.26,30.8Z"/><path class="cls-7" d="M668.04,311.42l13.59-1.03c2.39,1.48,4.93,3.2,7.56,5.1l-17.08,1.3c-1.56-1.89-2.93-3.69-4.08-5.37Z"/><path class="cls-7" d="M690.57,335.25c-5.09-4.37-9.69-8.78-13.57-12.93l19.19-1.46c1.3,1.05,2.61,2.15,3.92,3.27,4.58,3.93,8.73,7.88,12.28,11.63l-19.46,1.48c-.78-.65-1.57-1.32-2.36-1.99Z"/></g><path class="cls-1" d="M529.08,376.8c19.97,10.13,35.23,24.25,45.79,42.36,10.55,18.12,15.83,39.02,15.83,62.69,0,9.42-.86,19.55-2.57,30.39-5.14,28.82-16.19,54.78-33.17,77.89-16.98,23.11-38.52,41.3-64.62,54.56-26.1,13.27-54.99,19.9-86.66,19.9h-126.24l53.49-302.99h126.24c27.96,0,51.92,5.07,71.89,15.19Zm-64.83,185.51c14.69-11.69,23.89-28.38,27.6-50.07,.86-5.7,1.28-10.98,1.28-15.83,0-16.83-5.21-29.67-15.62-38.52-10.42-8.84-24.89-13.26-43.44-13.26h-22.68l-23.97,135.23h22.68c21.4,0,39.44-5.84,54.13-17.55Zm277.52-200.71l-29.96,170.75c-.85,4.57-1.28,9.27-1.28,14.12,0,9.7,2.57,17.33,7.7,22.9,5.14,5.56,13.27,8.34,24.39,8.34,13.69,0,24.53-4.06,32.52-12.2,7.99-8.13,13.27-19.18,15.83-33.17l29.96-170.75h94.57l-29.95,170.75c-5.14,29.67-15.34,54.64-30.6,74.89-15.26,20.26-33.95,35.38-56.06,45.36-22.11,9.99-46.43,14.98-72.96,14.98-33.96,0-61.06-8.91-81.31-26.75-20.26-17.83-30.38-43.29-30.38-76.39,0-10.55,1-21.25,2.99-32.1l29.96-170.75h94.58Zm579,0l-53.49,302.99h-94.58l26.53-150.64-73.18,150.64h-81.31l-20.12-151.92-26.53,151.92h-95l53.49-302.99h116.4l34.66,182.3,97.14-182.3h115.97Zm249.92,155.99c-11.42,15.55-26.61,27.89-45.58,37.02-18.98,9.14-40.73,13.69-65.26,13.69h-37.66l-17.12,96.29h-95l53.49-302.99h132.66c32.24,0,56.77,7.28,73.61,21.83,16.83,14.55,25.25,34.52,25.25,59.91,0,6.28-.71,13.69-2.14,22.25-3.42,19.12-10.85,36.45-22.25,52Zm-74.04-52c.57-3.42,.86-5.84,.86-7.28,0-13.69-8.42-20.54-25.25-20.54h-26.96l-9.84,55.63h26.96c19.4,0,30.81-9.27,34.24-27.82Z"/><g><path class="cls-2" d="M986.9,574.86l-15.93,20.1-2.96-9.85-1.81-3.38c-18.64-1.87-45.18-24.59-81.48-53.36-34.62-27.43-62.65-45.98-70.24-63.95l-3.08-2.64s-6.26,9.32-3.24-1.2c.09-.33-7.98-.97-7.98-.97l15.93-20.1c9.27-11.7,55.02,9.11,102.18,46.49,47.16,37.38,77.88,77.16,68.61,88.86Z"/><path class="cls-4" d="M971.22,536.93l-24.83,31.33c-14.75-7.09-32.17-17.78-50.24-31.15l33.27-41.99c17.14,14.54,31.53,29.06,41.8,41.8Z"/><path class="cls-3" d="M894.43,468.37l-32.34,40.8c-12.62-11.51-23.29-22.76-31.33-32.85l24.53-30.96c11.66,5.52,25.05,13.34,39.14,23Z"/><ellipse class="cls-5" cx="885.57" cy="527.29" rx="27.03" ry="108.96" transform="translate(-77.71 893.84) rotate(-51.6)"/><path class="cls-7" d="M965.13,570.55l-55.61,6.44c-7.67-4.64-15.72-9.95-23.95-15.84l66.78-7.73c5.18,6.13,9.49,11.9,12.78,17.14Z"/><path class="cls-6" d="M945.27,545.41l-70,8.1c-2.15-1.64-4.32-3.32-6.48-5.04-13.39-10.61-25.46-21.42-35.66-31.73l72.11-8.35c15.53,12.52,29.17,25.23,40.04,37.01Z"/><path class="cls-2" d="M898.12,511.46c-30.9-24.49-60.71-40.97-75.68-42.82-4.22-.52-7.26,.12-8.82,2.08-7.05,8.9,19.35,41.56,58.97,72.95,39.62,31.39,77.45,49.64,84.5,40.74,1.55-1.96,1.48-5.07,.01-9.06-5.22-14.15-28.08-39.41-58.98-63.9Z"/><path class="cls-5" d="M898.12,511.46c-30.9-24.49-60.71-40.97-75.68-42.82-4.43,9.3,20.07,38.9,56.13,67.48,36.07,28.58,70.48,45.66,78.52,39.23-5.22-14.15-28.08-39.41-58.98-63.9Z"/><path class="cls-7" d="M948.48,560.72l-29.08,3.37c-5.26-2.98-10.85-6.45-16.66-10.32l36.54-4.23c3.51,3.93,6.59,7.68,9.2,11.18Z"/><path class="cls-7" d="M898.12,511.46c11.31,8.96,21.53,18.02,30.21,26.6l-41.07,4.75c-2.88-2.15-5.78-4.38-8.7-6.69-10.16-8.05-19.4-16.18-27.33-23.92l41.65-4.82c1.74,1.33,3.48,2.69,5.23,4.07Z"/></g><g><path class="cls-2" d="M26.81,568.74l4.63,32.98,9.79-9.08,4.25-2.6c22.1,10.15,66.75,2.15,126.3-6.21,56.79-7.97,100.37-10.31,120.67-25.45l5.18-.93s.89,14.56,4.42,.78c.11-.43,9.57,4.16,9.57,4.16l-4.63-32.98c-2.69-19.19-67.6-25.95-144.97-15.09-77.37,10.86-137.91,35.22-135.21,54.41Z"/><path class="cls-4" d="M69.3,536.56l7.21,51.4c21.17,1.76,47.71,1.24,76.73-1.86l-9.67-68.88c-28.75,5.01-54.4,11.82-74.28,19.33Z"/><path class="cls-3" d="M200.34,510.25l9.39,66.94c21.69-4.6,41.04-10.17,56.67-16.19l-7.13-50.78c-16.69-1.48-36.82-1.52-58.94,.03Z"/><ellipse class="cls-5" cx="171.53" cy="582.06" rx="141.46" ry="35.09" transform="translate(-79.23 29.49) rotate(-7.99)"/><path class="cls-7" d="M54.02,578.2l58.04,43.76c11.64-.15,24.14-.81,37.22-2.01l-69.69-52.54c-9.83,3.45-18.45,7.09-25.58,10.79Z"/><path class="cls-6" d="M92.78,563.11l73.06,55.08c3.49-.42,7.02-.88,10.57-1.38,21.97-3.08,42.58-7.26,60.78-12.09l-75.26-56.73c-25.61,3.81-49.24,9.08-69.15,15.13Z"/><path class="cls-2" d="M167.89,556.08c50.69-7.11,94.91-5.98,112.88,1.79,5.07,2.19,8.05,4.91,8.5,8.12,2.05,14.6-48.98,33.82-113.97,42.94-64.99,9.12-119.34,4.68-121.38-9.91-.45-3.21,1.67-6.65,5.94-10.15,15.14-12.41,57.34-25.68,108.03-32.79Z"/><path class="cls-5" d="M167.89,556.08c50.69-7.11,94.91-5.98,112.88,1.79-1.16,13.33-48.03,30.37-107.2,38.68-59.17,8.3-108.92,4.82-113.71-7.67,15.14-12.41,57.34-25.68,108.03-32.79Z"/><path class="cls-7" d="M79.13,578.14l30.35,22.88c7.85,.11,16.39-.09,25.43-.61l-38.14-28.75c-6.51,2.09-12.43,4.27-17.65,6.47Z"/><path class="cls-7" d="M167.89,556.08c-18.55,2.6-35.95,6.03-51.32,9.94l42.86,32.31c4.64-.52,9.35-1.11,14.14-1.78,16.67-2.34,32.36-5.37,46.32-8.82l-43.47-32.77c-2.82,.35-5.67,.72-8.53,1.13Z"/></g><g><path class="cls-2" d="M1574.9,467.27h25.65l-5.88-8.44-1.53-3.52c10.11-15.77,8.79-50.68,8.79-97s2.88-77.66-6.49-94.76l-.15-4.05s11.2,.88,1.07-3.29c-.32-.13,4.2-6.85,4.2-6.85h-25.65c-14.93,0-27.03,48.78-27.03,108.96s12.1,108.96,27.03,108.96Z"/><path class="cls-4" d="M1554.91,431.42h39.98c3.61-15.96,6.05-36.26,6.8-58.72h-53.57c.75,22.46,3.19,42.76,6.8,58.72Z"/><path class="cls-3" d="M1548.87,328.66h52.06c-1.18-17.04-3.37-32.39-6.28-44.96h-39.5c-2.91,12.57-5.1,27.92-6.28,44.96Z"/><ellipse class="cls-5" cx="1600.55" cy="358.31" rx="27.03" ry="108.96"/><path class="cls-7" d="M1585.04,447.53l39.59-39.59c1.13-8.9,1.96-18.5,2.46-28.61l-47.53,47.53c1.58,7.87,3.43,14.83,5.49,20.66Z"/><path class="cls-6" d="M1577.68,416.35l49.83-49.83c.05-2.71,.08-5.45,.08-8.21,0-17.09-.98-33.26-2.72-47.65l-51.33,51.33c.16,19.94,1.66,38.53,4.14,54.36Z"/><path class="cls-2" d="M1580.35,358.31c0-39.42,5.6-73.03,13.45-85.91,2.22-3.63,4.61-5.62,7.11-5.62,11.35,0,20.55,40.98,20.55,91.52s-9.2,91.52-20.55,91.52c-2.5,0-4.89-1.98-7.11-5.62-7.85-12.88-13.45-46.48-13.45-85.91Z"/><path class="cls-5" d="M1580.35,358.31c0-39.42,5.6-73.03,13.45-85.91,10.04,2.31,18.02,39.89,18.02,85.91s-7.98,83.6-18.02,85.91c-7.85-12.88-13.45-46.48-13.45-85.91Z"/><path class="cls-7" d="M1587.68,428.37l20.7-20.7c.93-5.97,1.69-12.51,2.26-19.46l-26.01,26.01c.9,5.19,1.92,9.94,3.05,14.16Z"/><path class="cls-7" d="M1580.35,358.31c0,14.42,.75,28.07,2.09,40.2l29.23-29.23c.1-3.59,.15-7.25,.15-10.97,0-12.96-.63-25.25-1.77-36.28l-29.65,29.65c-.04,2.19-.05,4.4-.05,6.63Z"/></g><g><path class="cls-2" d="M361.63,330.94l-14.46-7.59-1.98,3.78,.51,1.21c-19.19,2.36-42.01,21.57-57.04,50.2-14.34,27.3-17.61,55.57-10.12,72.99l-2.55,.08s-.04,2.15-.15,2.36,.61,4.07,.61,4.07l14.46,7.59c20.77,10.91,53.45-10.4,72.98-47.59,19.53-37.19,18.52-76.19-2.25-87.09Z"/><path class="cls-4" d="M377.89,367.57l-55.64-29.22c-10.2,7.23-20.19,17.99-28.52,31.33l74.55,39.15c6.25-14.43,9.44-28.76,9.6-41.26Z"/><path class="cls-3" d="M352.94,435.49l-72.45-38.05c-3.88,11.4-5.83,22.48-5.85,32.38l54.96,28.86c8.14-5.64,16.16-13.53,23.34-23.2Z"/><ellipse class="cls-5" cx="312.09" cy="390.84" rx="76.06" ry="42.48" transform="translate(-179.04 485.44) rotate(-62.3)"/><path class="cls-7" d="M363.42,352.67c-.48-5.25-1.58-10.07-3.28-14.28l-81.54,25.39c-1.43,2.36-2.81,4.8-4.13,7.31-1.9,3.61-3.6,7.25-5.11,10.87l94.06-29.29Z"/><path class="cls-6" d="M362.06,375.86l-100.18,31.19c-1.97,11.18-1.89,21.56,.21,30.18l88-27.4c5.93-11.46,9.91-23.08,11.97-33.97Z"/><ellipse class="cls-2" cx="311.8" cy="390.69" rx="63.89" ry="35.69" transform="translate(-179.06 485.11) rotate(-62.29)"/><ellipse class="cls-5" cx="314.18" cy="391.94" rx="60.05" ry="33" transform="translate(-178.89 487.88) rotate(-62.3)"/><path class="cls-7" d="M354.59,367.16l-75.82,23.61c-4.54,12.87-5.97,25.26-4.35,35.16l70.67-22c6.19-12.82,9.34-25.72,9.5-36.76Z"/><path class="cls-7" d="M353.59,356.08c-.65-3.08-1.62-5.88-2.9-8.35l-59.57,18.55c-2.18,3.23-4.25,6.68-6.16,10.31-.18,.34-.35,.68-.53,1.02l69.16-21.53Z"/></g></svg>