<?xml version="1.0" encoding="UTF-8"?><svg id="Layer_1" xmlns="http://www.w3.org/2000/svg" xmlns:xlink="http://www.w3.org/1999/xlink" viewBox="0 0 1260 335"><defs><style>.cls-1{fill:url(#linear-gradient);}</style><linearGradient id="linear-gradient" x1="955.38" y1="-212.78" x2="229.52" y2="513.07" gradientTransform="matrix(1, 0, 0, 1, 0, 0)" gradientUnits="userSpaceOnUse"><stop offset="0" stop-color="#1800ff"/><stop offset=".5" stop-color="#ff4200"/><stop offset="1" stop-color="#00fffe"/></linearGradient></defs><path class="cls-1" d="M254.41,40.39c18.42,9.34,32.5,22.37,42.24,39.08,9.73,16.71,14.61,35.99,14.61,57.83,0,8.69-.79,18.03-2.37,28.03-4.74,26.58-14.94,50.53-30.59,71.84-15.66,21.32-35.53,38.09-59.61,50.33-24.08,12.24-50.72,18.35-79.93,18.35H22.3L71.64,26.38h116.45c25.79,0,47.89,4.68,66.32,14.02Zm-59.8,171.12c13.55-10.79,22.04-26.18,25.46-46.18,.79-5.26,1.18-10.13,1.18-14.61,0-15.53-4.8-27.37-14.41-35.53-9.61-8.15-22.96-12.24-40.07-12.24h-20.92l-22.11,124.74h20.92c19.74,0,36.38-5.39,49.93-16.19ZM450.59,26.38l-27.63,157.5c-.79,4.21-1.18,8.55-1.18,13.03,0,8.95,2.37,15.99,7.11,21.12,4.74,5.13,12.24,7.7,22.5,7.7,12.63,0,22.63-3.75,30-11.25,7.37-7.5,12.24-17.7,14.61-30.59l27.63-157.5h87.24l-27.63,157.5c-4.74,27.37-14.15,50.4-28.23,69.08-14.08,18.69-31.32,32.63-51.71,41.84-20.4,9.21-42.83,13.82-67.3,13.82-31.32,0-56.32-8.22-75-24.67-18.69-16.44-28.03-39.93-28.03-70.46,0-9.73,.92-19.6,2.76-29.61l27.63-157.5h87.24Zm534.08,0l-49.34,279.48h-87.24l24.47-138.95-67.5,138.95h-75l-18.55-140.13-24.47,140.13h-87.63L648.75,26.38h107.37l31.97,168.16L877.7,26.38h106.97Zm230.53,143.89c-10.53,14.34-24.54,25.73-42.04,34.14-17.5,8.43-37.57,12.63-60.2,12.63h-34.74l-15.79,88.82h-87.63l49.34-279.48h122.37c29.74,0,52.37,6.71,67.9,20.13,15.53,13.42,23.29,31.85,23.29,55.26,0,5.79-.66,12.63-1.97,20.53-3.16,17.63-10,33.62-20.53,47.96Zm-68.29-47.96c.52-3.16,.79-5.39,.79-6.71,0-12.63-7.77-18.95-23.29-18.95h-24.87l-9.08,51.32h24.87c17.89,0,28.42-8.55,31.58-25.66Z"/></svg>