<?xml version="1.0" encoding="utf-8"?>
<!-- Generator: Adobe Illustrator 23.1.0, SVG Export Plug-In . SVG Version: 6.00 Build 0)  -->
<svg version="1.1" id="Layer_1" xmlns="http://www.w3.org/2000/svg" xmlns:xlink="http://www.w3.org/1999/xlink" x="0px" y="0px"
	 viewBox="0 0 1260 335" style="enable-background:new 0 0 1260 335;" xml:space="preserve">
<style type="text/css">
	.st0{fill:#0055E9;}
</style>
<g>
	<g>
		<path class="st0" d="M229.4,240.4c-5.1,0-9.4-1.7-12.7-5.1c-3.4-3.4-5.1-7.6-5.1-12.7c0-9.1,2.3-19,7-29.9
			c4.7-10.8,11.9-20.4,21.7-28.8c6.5-5.6,12.5-11.1,18-16.6c5.5-5.5,9.9-11.8,13.3-18.9c3.4-7.1,5.1-15.8,5.1-26
			c0-7.4-1.7-14.4-5.2-21c-3.5-6.5-8.4-11.8-14.8-15.9c-6.4-4.1-14.3-6.1-23.6-6.1c-11.4,0-20.8,2.1-28.3,6.3
			c-7.5,4.2-13,10-16.6,17.5c-3.6,7.5-5.4,16.2-5.4,26.2c0,5.1-1.6,9.4-4.9,12.7c-3.3,3.4-7.6,5.1-12.9,5.1c-5.1,0-9.4-1.7-12.7-5.1
			c-3.4-3.4-5.1-7.6-5.1-12.7c0-16.3,3.5-30.6,10.7-43c7.1-12.3,17.1-22.1,30-29.2c12.9-7.1,28-10.7,45.2-10.7
			c15.1,0,28.6,3.2,40.3,9.6c11.8,6.4,21.1,15.3,27.9,26.5c6.9,11.3,10.3,24.5,10.3,39.6c0,13-2.1,24.3-6.3,33.9
			c-4.2,9.6-9.9,18.1-17.1,25.7c-7.2,7.6-15.5,15.1-24.8,22.5c-6.1,4.9-10.2,11.2-12.6,19c-2.3,7.8-3.5,14.1-3.5,19
			c0,5.1-1.6,9.4-4.9,12.7C239.1,238.8,234.7,240.4,229.4,240.4z M229.4,305.1c-6.5,0-12.2-2.4-16.9-7.2c-4.8-4.8-7.2-10.4-7.2-16.9
			c0-6.8,2.4-12.5,7.2-17.3c4.8-4.8,10.4-7.2,16.9-7.2c6.8,0,12.5,2.4,17.3,7.2c4.8,4.8,7.2,10.5,7.2,17.3c0,6.5-2.4,12.2-7.2,16.9
			C241.9,302.7,236.1,305.1,229.4,305.1z"/>
		<path class="st0" d="M420.4,240.4c-5.1,0-9.4-1.7-12.7-5.1c-3.4-3.4-5.1-7.6-5.1-12.7c0-9.1,2.3-19,7-29.9
			c4.7-10.8,11.9-20.4,21.7-28.8c6.5-5.6,12.5-11.1,18-16.6c5.5-5.5,9.9-11.8,13.3-18.9c3.4-7.1,5.1-15.8,5.1-26
			c0-7.4-1.7-14.4-5.2-21c-3.5-6.5-8.4-11.8-14.8-15.9c-6.4-4.1-14.3-6.1-23.6-6.1c-11.4,0-20.8,2.1-28.3,6.3
			c-7.5,4.2-13,10-16.6,17.5c-3.6,7.5-5.4,16.2-5.4,26.2c0,5.1-1.6,9.4-4.9,12.7c-3.3,3.4-7.6,5.1-12.9,5.1c-5.1,0-9.4-1.7-12.7-5.1
			c-3.4-3.4-5.1-7.6-5.1-12.7c0-16.3,3.5-30.6,10.7-43c7.1-12.3,17.1-22.1,30-29.2c12.9-7.1,28-10.7,45.2-10.7
			c15.1,0,28.6,3.2,40.3,9.6c11.8,6.4,21.1,15.3,27.9,26.5c6.9,11.3,10.3,24.5,10.3,39.6c0,13-2.1,24.3-6.3,33.9
			c-4.2,9.6-9.9,18.1-17.1,25.7c-7.2,7.6-15.5,15.1-24.8,22.5c-6.1,4.9-10.2,11.2-12.6,19c-2.3,7.8-3.5,14.1-3.5,19
			c0,5.1-1.6,9.4-4.9,12.7C430.1,238.8,425.8,240.4,420.4,240.4z M420.4,305.1c-6.5,0-12.2-2.4-16.9-7.2c-4.8-4.8-7.2-10.4-7.2-16.9
			c0-6.8,2.4-12.5,7.2-17.3c4.8-4.8,10.4-7.2,16.9-7.2c6.8,0,12.5,2.4,17.3,7.2c4.8,4.8,7.2,10.5,7.2,17.3c0,6.5-2.4,12.2-7.2,16.9
			C433,302.7,427.2,305.1,420.4,305.1z"/>
		<path class="st0" d="M611.5,240.4c-5.1,0-9.4-1.7-12.7-5.1c-3.4-3.4-5.1-7.6-5.1-12.7c0-9.1,2.3-19,7-29.9
			c4.7-10.8,11.9-20.4,21.7-28.8c6.5-5.6,12.5-11.1,18-16.6c5.5-5.5,9.9-11.8,13.3-18.9c3.4-7.1,5.1-15.8,5.1-26
			c0-7.4-1.7-14.4-5.2-21c-3.5-6.5-8.4-11.8-14.8-15.9c-6.4-4.1-14.3-6.1-23.6-6.1c-11.4,0-20.8,2.1-28.3,6.3
			c-7.5,4.2-13,10-16.6,17.5c-3.6,7.5-5.4,16.2-5.4,26.2c0,5.1-1.6,9.4-4.9,12.7c-3.3,3.4-7.6,5.1-12.9,5.1c-5.1,0-9.4-1.7-12.7-5.1
			c-3.4-3.4-5.1-7.6-5.1-12.7c0-16.3,3.5-30.6,10.7-43c7.1-12.3,17.1-22.1,30-29.2c12.9-7.1,28-10.7,45.2-10.7
			c15.1,0,28.6,3.2,40.3,9.6c11.8,6.4,21.1,15.3,27.9,26.5c6.9,11.3,10.3,24.5,10.3,39.6c0,13-2.1,24.3-6.3,33.9
			c-4.2,9.6-9.9,18.1-17.1,25.7c-7.2,7.6-15.5,15.1-24.8,22.5c-6.1,4.9-10.3,11.2-12.6,19c-2.3,7.8-3.5,14.1-3.5,19
			c0,5.1-1.6,9.4-4.9,12.7C621.2,238.8,616.9,240.4,611.5,240.4z M611.5,305.1c-6.5,0-12.2-2.4-16.9-7.2c-4.8-4.8-7.2-10.4-7.2-16.9
			c0-6.8,2.4-12.5,7.2-17.3c4.8-4.8,10.4-7.2,16.9-7.2c6.8,0,12.5,2.4,17.3,7.2c4.8,4.8,7.2,10.5,7.2,17.3c0,6.5-2.4,12.2-7.2,16.9
			C624,302.7,618.3,305.1,611.5,305.1z"/>
		<path class="st0" d="M802.6,240.4c-5.1,0-9.4-1.7-12.7-5.1c-3.4-3.4-5.1-7.6-5.1-12.7c0-9.1,2.3-19,7-29.9
			c4.7-10.8,11.9-20.4,21.7-28.8c6.5-5.6,12.5-11.1,18-16.6c5.5-5.5,9.9-11.8,13.3-18.9c3.4-7.1,5.1-15.8,5.1-26
			c0-7.4-1.7-14.4-5.2-21C841,75,836,69.7,829.6,65.6c-6.4-4.1-14.3-6.1-23.6-6.1c-11.4,0-20.8,2.1-28.3,6.3
			c-7.5,4.2-13,10-16.6,17.5c-3.6,7.5-5.4,16.2-5.4,26.2c0,5.1-1.6,9.4-4.9,12.7c-3.3,3.4-7.6,5.1-12.9,5.1c-5.1,0-9.4-1.7-12.7-5.1
			c-3.4-3.4-5.1-7.6-5.1-12.7c0-16.3,3.5-30.6,10.7-43c7.1-12.3,17.1-22.1,30-29.2c12.9-7.1,28-10.7,45.2-10.7
			c15.1,0,28.6,3.2,40.3,9.6c11.8,6.4,21.1,15.3,27.9,26.5c6.9,11.3,10.3,24.5,10.3,39.6c0,13-2.1,24.3-6.3,33.9
			c-4.2,9.6-9.9,18.1-17.1,25.7c-7.2,7.6-15.5,15.1-24.8,22.5c-6.1,4.9-10.2,11.2-12.6,19c-2.3,7.8-3.5,14.1-3.5,19
			c0,5.1-1.6,9.4-4.9,12.7C812.2,238.8,807.9,240.4,802.6,240.4z M802.6,305.1c-6.5,0-12.2-2.4-16.9-7.2c-4.8-4.8-7.2-10.4-7.2-16.9
			c0-6.8,2.4-12.5,7.2-17.3c4.8-4.8,10.4-7.2,16.9-7.2c6.8,0,12.5,2.4,17.3,7.2c4.8,4.8,7.2,10.5,7.2,17.3c0,6.5-2.4,12.2-7.2,16.9
			C815.1,302.7,809.3,305.1,802.6,305.1z"/>
		<path class="st0" d="M993.6,240.4c-5.1,0-9.4-1.7-12.7-5.1c-3.4-3.4-5.1-7.6-5.1-12.7c0-9.1,2.3-19,7-29.9
			c4.7-10.8,11.9-20.4,21.7-28.8c6.5-5.6,12.5-11.1,18-16.6c5.5-5.5,9.9-11.8,13.3-18.9c3.4-7.1,5.1-15.8,5.1-26
			c0-7.4-1.7-14.4-5.2-21c-3.5-6.5-8.4-11.8-14.8-15.9c-6.4-4.1-14.3-6.1-23.6-6.1c-11.4,0-20.8,2.1-28.3,6.3
			c-7.5,4.2-13,10-16.6,17.5c-3.6,7.5-5.4,16.2-5.4,26.2c0,5.1-1.6,9.4-4.9,12.7c-3.3,3.4-7.6,5.1-12.9,5.1c-5.1,0-9.4-1.7-12.7-5.1
			c-3.4-3.4-5.1-7.6-5.1-12.7c0-16.3,3.5-30.6,10.7-43c7.1-12.3,17.1-22.1,30-29.2c12.9-7.1,28-10.7,45.2-10.7
			c15.1,0,28.6,3.2,40.3,9.6c11.8,6.4,21.1,15.3,27.9,26.5c6.9,11.3,10.3,24.5,10.3,39.6c0,13-2.1,24.3-6.3,33.9
			c-4.2,9.6-9.9,18.1-17.1,25.7c-7.2,7.6-15.5,15.1-24.8,22.5c-6.1,4.9-10.2,11.2-12.6,19c-2.3,7.8-3.5,14.1-3.5,19
			c0,5.1-1.6,9.4-4.9,12.7C1003.3,238.8,999,240.4,993.6,240.4z M993.6,305.1c-6.5,0-12.2-2.4-16.9-7.2c-4.8-4.8-7.2-10.4-7.2-16.9
			c0-6.8,2.4-12.5,7.2-17.3c4.8-4.8,10.4-7.2,16.9-7.2c6.8,0,12.5,2.4,17.3,7.2c4.8,4.8,7.2,10.5,7.2,17.3c0,6.5-2.4,12.2-7.2,16.9
			C1006.1,302.7,1000.4,305.1,993.6,305.1z"/>
	</g>
</g>
</svg>
