<svg xmlns="http://www.w3.org/2000/svg" enable-background="new 0 0 512 512" viewBox="0 0 512 512"><path fill="#359dc3" d="M0,256C0,114.6,114.6,0,256,0s256,114.6,256,256c0,141.4-114.6,256-256,256S0,397.4,0,256z"/><path fill="#fff" d="M197.4,389.1c-36.2,0-71.4-10.3-101.9-29.9l-17.1-11l20.2,2.4c4.9,0.6,9.9,0.9,14.9,0.9
			c24.4,0,47.6-6.8,67.9-19.8c-24.3-4.9-44.6-22.6-52.3-46.9l-2.4-7.5l7.7,1.5c2.7,0.5,5.4,0.8,8.1,1
			c-21.9-11.9-36.3-35.2-36.3-61.1l0.3-8.6l6.7,3.7c3.7,2,7.5,3.7,11.6,4.9c-11.5-12.6-18-29.2-18-46.7c0-12.3,3.3-24.4,9.4-35
			l3.4-5.8l4.3,5.2c30.9,37.9,75.9,61.6,124.3,65.6c-0.4-3.2-0.7-6.4-0.7-9.7c0-38.3,31.2-69.5,69.5-69.5c18.3,0,35.9,7.3,48.9,20.1
			c13.1-2.9,25.6-7.8,37.2-14.7l10.6-6.3l-3.8,11.7c-3.2,9.9-8.5,18.8-15.5,26.3c6.1-1.7,12.1-3.8,17.9-6.3l14.7-6.5l-9,13.4
			c-8.6,12.9-19.2,24-31.5,33.3c0.1,2,0.1,4.1,0.1,6.1C386.5,292.9,315.8,389.1,197.4,389.1z M117.1,360.8
			c24.8,12.4,52.2,18.9,80.2,18.9c112.5,0,179.8-91.4,179.8-179.8c0-2.7-0.1-5.5-0.2-8.2l-0.1-2.5l2-1.5c8-5.8,15.2-12.4,21.6-19.8
			c-7.6,2.3-15.3,3.9-23.2,4.9l-21.7,2.6l18.7-11.2c8.9-5.3,16.1-12.7,21.2-21.5c-9.7,4.5-20,7.9-30.6,9.9l-2.5,0.5l-1.8-1.9
			c-11.3-12.1-27.3-19-43.9-19c-33.2,0-60.2,27-60.2,60.2c0,4.7,0.5,9.3,1.6,13.7l1.4,6l-6.2-0.3c-50.9-2.6-98.8-25.8-132.4-64
			c-3.3,7.6-5.1,15.9-5.1,24.2c0,20.2,10,38.9,26.8,50.1l13.6,9.1l-16.3-0.5c-8.3-0.3-16.5-2-24.2-5.2c2.9,25.6,22.2,47,47.9,52.2
			l19.3,3.9l-19,5.2c-7.5,2.1-15.4,2.8-23.3,2.3c9.6,20.6,30.2,34.3,53.4,34.7l13.1,0.2l-10.3,8.1
			C173.8,350.2,146.3,360,117.1,360.8z"/></svg>