<svg id="svg" version="1.1" xmlns="http://www.w3.org/2000/svg" xmlns:xlink="http://www.w3.org/1999/xlink" width="96" height="96" viewBox="0, 0, 400,400"><g id="svgg"><path id="path0" d="M199.333 236.370 C 199.089 236.615,198.889 236.984,198.889 237.190 C 198.889 237.396,198.474 237.988,197.966 238.505 C 195.417 241.101,194.609 242.118,193.831 243.704 C 193.681 244.009,193.174 244.563,192.705 244.934 C 192.236 245.306,191.852 245.828,191.852 246.095 C 191.852 246.363,191.435 246.854,190.926 247.188 C 190.417 247.522,190.000 247.982,190.000 248.210 C 190.000 248.619,189.669 249.022,187.422 251.352 C 185.395 253.454,185.727 253.704,190.556 253.704 L 194.815 253.704 194.815 257.407 L 194.815 261.111 200.000 261.111 L 205.185 261.111 205.185 257.407 L 205.185 253.704 209.655 253.704 C 214.530 253.704,215.171 253.216,212.740 251.358 C 212.252 250.985,211.852 250.447,211.852 250.163 C 211.852 249.879,211.435 249.374,210.926 249.040 C 210.417 248.706,210.000 248.212,210.000 247.941 C 210.000 247.671,209.705 247.232,209.345 246.965 C 208.985 246.699,208.414 246.047,208.075 245.515 C 207.736 244.983,207.185 244.275,206.851 243.941 C 206.517 243.607,206.331 243.333,206.438 243.333 C 206.545 243.333,206.266 242.938,205.816 242.454 C 205.367 241.971,204.583 241.048,204.074 240.404 C 203.565 239.759,202.799 238.863,202.371 238.412 C 201.944 237.961,201.396 237.218,201.154 236.759 C 200.667 235.836,200.009 235.695,199.333 236.370 M99.331 263.968 L 98.476 264.131 98.605 283.269 C 98.730 301.842,98.759 302.500,99.583 305.556 C 101.627 313.144,105.728 317.616,113.519 320.754 C 119.133 323.015,135.002 323.640,142.407 321.890 C 152.249 319.566,157.768 314.731,160.424 306.109 C 161.189 303.626,161.229 302.704,161.378 283.846 L 161.533 264.174 160.674 263.944 C 159.310 263.579,152.737 263.667,151.691 264.065 L 150.741 264.426 150.741 282.506 C 150.741 304.380,150.677 304.790,146.693 308.422 C 141.461 313.192,122.116 313.737,115.141 309.311 C 110.030 306.068,109.869 305.287,109.719 282.909 L 109.592 264.151 108.778 263.932 C 107.865 263.688,100.655 263.715,99.331 263.968 M240.461 264.010 C 240.092 264.244,240.015 270.324,240.090 293.171 L 240.185 322.037 258.296 322.133 C 273.293 322.213,276.873 322.133,279.118 321.669 C 307.639 315.778,310.252 274.425,282.685 265.210 C 278.767 263.901,242.267 262.863,240.461 264.010 M182.407 264.332 C 180.782 264.548,177.252 265.584,177.037 265.909 C 176.935 266.063,176.411 266.421,175.873 266.705 C 171.430 269.052,168.887 273.923,168.893 280.075 C 168.897 284.686,169.181 287.129,169.677 286.823 C 169.855 286.713,170.000 286.798,170.000 287.012 C 170.000 287.745,171.606 291.078,171.878 290.910 C 172.027 290.817,172.494 291.325,172.914 292.038 C 173.335 292.750,173.865 293.333,174.094 293.333 C 174.322 293.333,175.202 293.817,176.051 294.409 C 176.899 295.000,178.509 295.703,179.630 295.971 C 180.750 296.238,181.775 296.612,181.907 296.802 C 182.040 296.991,182.748 297.049,183.481 296.930 C 184.218 296.810,184.815 296.869,184.815 297.060 C 184.815 297.253,186.462 297.407,188.519 297.407 L 192.222 297.407 192.222 292.778 L 192.222 288.148 188.311 288.148 C 185.937 288.148,184.486 288.010,184.618 287.796 C 184.738 287.603,184.289 287.341,183.621 287.214 C 180.322 286.587,178.241 280.502,180.485 278.044 C 180.728 277.779,181.111 277.235,181.337 276.836 C 181.563 276.437,182.396 275.868,183.188 275.571 C 183.981 275.275,184.685 274.900,184.753 274.738 C 184.821 274.577,195.363 274.444,208.179 274.444 L 231.481 274.444 231.481 269.259 L 231.481 264.074 207.500 264.130 C 194.310 264.160,183.019 264.251,182.407 264.332 M277.084 275.052 C 295.311 279.108,296.145 305.647,278.207 310.777 C 276.002 311.407,274.417 311.481,263.149 311.481 L 250.556 311.481 250.556 292.963 L 250.556 274.444 262.455 274.444 C 272.129 274.444,274.864 274.558,277.084 275.052 M194.815 293.109 C 194.815 306.746,194.880 308.464,195.401 308.664 C 195.723 308.788,198.056 308.889,200.586 308.889 L 205.185 308.889 205.185 293.333 L 205.185 277.778 200.000 277.778 L 194.815 277.778 194.815 293.109 M207.986 288.777 C 207.853 289.123,207.772 291.206,207.804 293.406 L 207.864 297.407 212.092 297.407 C 216.288 297.407,218.889 297.967,218.889 298.870 C 218.889 299.084,219.120 299.259,219.402 299.259 C 219.995 299.259,221.111 301.412,221.111 302.556 C 221.111 302.984,221.278 303.333,221.481 303.333 C 221.685 303.333,221.852 303.750,221.852 304.259 C 221.852 304.769,221.685 305.185,221.481 305.185 C 221.278 305.185,221.111 305.608,221.111 306.126 C 221.111 308.496,218.579 311.111,216.284 311.111 C 215.883 311.111,215.556 311.236,215.556 311.389 C 215.556 311.542,205.097 311.667,192.315 311.667 L 169.074 311.667 168.971 316.944 L 168.869 322.222 192.514 322.222 C 207.904 322.222,216.928 322.082,218.358 321.821 C 222.795 321.010,227.591 317.939,229.221 314.864 C 229.505 314.328,229.878 313.797,230.049 313.685 C 231.776 312.554,231.963 297.037,230.250 297.037 C 230.044 297.037,229.983 296.931,230.113 296.801 C 230.242 296.671,230.020 296.104,229.619 295.540 C 229.217 294.976,228.889 294.400,228.889 294.258 C 228.889 293.617,225.738 291.019,224.352 290.518 C 223.995 290.389,223.704 290.155,223.704 289.997 C 223.704 289.752,223.008 289.479,221.296 289.051 C 216.974 287.971,208.363 287.793,207.986 288.777 M194.815 331.481 L 194.815 337.407 200.000 337.407 L 205.185 337.407 205.185 331.481 L 205.185 325.556 200.000 325.556 L 194.815 325.556 194.815 331.481 " stroke="none" fill="#fbfbfb" fill-rule="evenodd"></path><path id="path1" d="M187.963 25.043 C 167.417 27.056,154.947 29.731,139.499 35.439 C 55.560 66.452,8.438 155.216,29.814 242.057 C 52.563 334.478,145.047 391.701,238.333 371.076 C 333.918 349.943,393.672 253.354,370.186 157.943 C 352.618 86.570,293.219 34.525,219.259 25.702 C 214.532 25.138,191.865 24.660,187.963 25.043 M220.185 37.391 C 303.141 48.180,363.509 116.670,363.509 200.000 C 363.509 312.168,254.266 390.886,147.923 355.347 C 62.305 326.735,15.987 233.702,44.653 147.923 C 69.256 74.302,143.675 27.441,220.185 37.391 M99.502 84.368 C 105.091 89.470,179.635 161.642,179.548 161.866 C 179.475 162.054,99.986 239.128,92.047 246.710 C 91.332 247.393,91.699 247.407,110.381 247.391 L 129.444 247.375 163.494 213.853 L 197.543 180.332 202.012 184.752 C 204.470 187.182,219.959 202.274,236.432 218.289 L 266.382 247.407 286.797 247.407 L 307.212 247.407 305.551 245.781 C 304.637 244.887,284.639 225.700,261.111 203.143 C 237.583 180.587,218.287 162.012,218.230 161.867 C 218.173 161.721,236.501 143.867,258.959 122.190 L 299.791 82.778 280.979 82.682 L 262.166 82.586 252.035 92.497 C 246.463 97.948,232.581 111.614,221.186 122.867 L 200.468 143.327 169.216 112.962 L 137.963 82.597 117.778 82.611 L 97.593 82.625 99.502 84.368 M208.374 246.082 C 208.485 246.372,208.810 246.699,209.097 246.810 C 209.527 246.974,209.539 246.882,209.165 246.283 C 208.641 245.444,208.074 245.301,208.374 246.082 M205.322 257.407 C 205.322 259.546,205.383 260.421,205.458 259.352 C 205.533 258.282,205.533 256.532,205.458 255.463 C 205.383 254.394,205.322 255.269,205.322 257.407 M231.563 269.167 L 231.481 274.444 208.148 274.444 C 195.315 274.444,184.815 274.569,184.815 274.722 C 184.815 275.093,231.210 274.865,231.582 274.492 C 231.743 274.332,231.822 271.880,231.759 269.045 L 231.644 263.889 231.563 269.167 M172.943 268.796 L 171.667 270.185 173.056 268.909 C 174.348 267.721,174.615 267.407,174.332 267.407 C 174.270 267.407,173.645 268.032,172.943 268.796 M168.650 280.556 C 168.649 282.389,168.711 283.186,168.789 282.326 C 168.867 281.466,168.868 279.966,168.791 278.993 C 168.715 278.019,168.651 278.722,168.650 280.556 M199.903 277.679 L 205.177 277.798 205.280 293.251 L 205.382 308.704 205.376 293.148 L 205.370 277.593 200.000 277.576 L 194.630 277.560 199.903 277.679 M179.731 281.481 C 179.731 282.398,179.803 282.773,179.891 282.315 C 179.979 281.856,179.979 281.106,179.891 280.648 C 179.803 280.190,179.731 280.565,179.731 281.481 M192.365 292.593 C 192.365 295.139,192.424 296.181,192.496 294.907 C 192.569 293.634,192.569 291.551,192.496 290.278 C 192.424 289.005,192.365 290.046,192.365 292.593 M183.519 297.037 C 182.862 297.319,182.894 297.358,183.796 297.381 C 184.356 297.396,184.815 297.241,184.815 297.037 C 184.815 296.602,184.530 296.602,183.519 297.037 M231.608 305.000 C 231.610 306.630,231.675 307.250,231.753 306.379 C 231.831 305.508,231.830 304.175,231.751 303.416 C 231.671 302.658,231.607 303.370,231.608 305.000 M221.111 304.259 C 221.111 304.769,221.278 305.185,221.481 305.185 C 221.685 305.185,221.852 304.769,221.852 304.259 C 221.852 303.750,221.685 303.333,221.481 303.333 C 221.278 303.333,221.111 303.750,221.111 304.259 M219.231 309.495 C 218.405 310.393,218.397 310.438,219.123 310.061 C 219.557 309.835,220.011 309.396,220.130 309.084 C 220.433 308.295,220.264 308.372,219.231 309.495 M168.587 316.944 C 168.656 322.440,168.794 321.784,168.976 315.092 C 169.030 313.105,168.949 311.480,168.796 311.481 C 168.644 311.481,168.549 313.940,168.587 316.944 M205.336 331.481 C 205.336 334.843,205.392 336.218,205.461 334.537 C 205.529 332.856,205.529 330.106,205.461 328.426 C 205.392 326.745,205.336 328.120,205.336 331.481 " stroke="none" fill="#24b4ac" fill-rule="evenodd"></path></g></svg>